999
DXF created by Inkscape
  0
SECTION
  2
HEADER
  9
$ACADVER
  1
AC1014
  9
$HANDSEED
  5
FFFF
  9
$MEASUREMENT
 70
     1
  0
ENDSEC
  0
SECTION
  2
TABLES
  0
TABLE
  2
VPORT
  5
8
330
0
100
AcDbSymbolTable
 70
     4
  0
VPORT
  5
2E
330
8
100
AcDbSymbolTableRecord
100
AcDbViewportTableRecord
  2
*ACTIVE
 70
     0
 10
0.0
 20
0.0
 11
1.0
 21
1.0
 12
210.0
 22
148.5
 13
0.0
 23
0.0
 14
10.0
 24
10.0
 15
10.0
 25
10.0
 16
0.0
 26
0.0
 36
1.0
 17
0.0
 27
0.0
 37
0.0
 40
341.0
 41
1.24
 42
50.0
 43
0.0
 44
0.0
 50
0.0
 51
0.0
 71
     0
 72
   100
 73
     1
 74
     3
 75
     0
 76
     0
 77
     0
 78
     0
  0
ENDTAB
  0
TABLE
  2
LTYPE
  5
5
330
0
100
AcDbSymbolTable
 70
     1
  0
LTYPE
  5
14
330
5
100
AcDbSymbolTableRecord
100
AcDbLinetypeTableRecord
  2
BYBLOCK
 70
     0
  3

 72
    65
 73
     0
 40
0.0
  0
LTYPE
  5
15
330
5
100
AcDbSymbolTableRecord
100
AcDbLinetypeTableRecord
  2
BYLAYER
 70
     0
  3

 72
    65
 73
     0
 40
0.0
  0
LTYPE
  5
16
330
5
100
AcDbSymbolTableRecord
100
AcDbLinetypeTableRecord
  2
CONTINUOUS
 70
     0
  3
Solid line
 72
    65
 73
     0
 40
0.0
  0
ENDTAB
  0
TABLE
  2
LAYER
  5
2
100
AcDbSymbolTable
 70
2
  0
LAYER
  5
50
100
AcDbSymbolTableRecord
100
AcDbLayerTableRecord
  2
0
 70
0
  6
CONTINUOUS
  0
LAYER
  5
51
100
AcDbSymbolTableRecord
100
AcDbLayerTableRecord
  2
VISIBLE
 70
0
  6
CONTINUOUS
  0
ENDTAB
  0
TABLE
  2
STYLE
  5
3
330
0
100
AcDbSymbolTable
 70
     1
  0
STYLE
  5
11
330
3
100
AcDbSymbolTableRecord
100
AcDbTextStyleTableRecord
  2
STANDARD
 70
     0
 40
0.0
 41
1.0
 50
0.0
 71
     0
 42
2.5
  3
txt
  4

  0
ENDTAB
  0
TABLE
  2
VIEW
  5
6
330
0
100
AcDbSymbolTable
 70
     0
  0
ENDTAB
  0
TABLE
  2
UCS
  5
7
330
0
100
AcDbSymbolTable
 70
     0
  0
ENDTAB
  0
TABLE
  2
APPID
  5
9
330
0
100
AcDbSymbolTable
 70
     2
  0
APPID
  5
12
330
9
100
AcDbSymbolTableRecord
100
AcDbRegAppTableRecord
  2
ACAD
 70
     0
  0
ENDTAB
  0
TABLE
  2
DIMSTYLE
  5
A
330
0
100
AcDbSymbolTable
 70
     1
  0
DIMSTYLE
105
27
330
A
100
AcDbSymbolTableRecord
100
AcDbDimStyleTableRecord
  2
ISO-25
 70
     0
  3

  4

  5

  6

  7

 40
1.0
 41
2.5
 42
0.625
 43
3.75
 44
1.25
 45
0.0
 46
0.0
 47
0.0
 48
0.0
140
2.5
141
2.5
142
0.0
143
0.03937007874016
144
1.0
145
0.0
146
1.0
147
0.625
 71
     0
 72
     0
 73
     0
 74
     0
 75
     0
 76
     0
 77
     1
 78
     8
170
     0
171
     3
172
     1
173
     0
174
     0
175
     0
176
     0
177
     0
178
     0
270
     2
271
     2
272
     2
273
     2
274
     3
340
11
275
     0
280
     0
281
     0
282
     0
283
     0
284
     8
285
     0
286
     0
287
     3
288
     0
  0
ENDTAB
  0
TABLE
  2
BLOCK_RECORD
  5
1
330
0
100
AcDbSymbolTable
 70
     1
  0
BLOCK_RECORD
  5
1F
330
1
100
AcDbSymbolTableRecord
100
AcDbBlockTableRecord
  2
*MODEL_SPACE
  0
BLOCK_RECORD
  5
1B
330
1
100
AcDbSymbolTableRecord
100
AcDbBlockTableRecord
  2
*PAPER_SPACE
  0
ENDTAB
  0
ENDSEC
  0
SECTION
  2
BLOCKS
  0
BLOCK
  5
20
330
1F
100
AcDbEntity
  8
0
100
AcDbBlockBegin
  2
*MODEL_SPACE
 70
     0
 10
0.0
 20
0.0
 30
0.0
  3
*MODEL_SPACE
  1

  0
ENDBLK
  5
21
330
1F
100
AcDbEntity
  8
0
100
AcDbBlockEnd
  0
BLOCK
  5
1C
330
1B
100
AcDbEntity
 67
     1
  8
0
100
AcDbBlockBegin
  2
*PAPER_SPACE
  1

  0
ENDBLK
  5
1D
330
1B
100
AcDbEntity
 67
     1
  8
0
100
AcDbBlockEnd
  0
ENDSEC
  0
SECTION
  2
ENTITIES
  0
LWPOLYLINE
  5
100
100
AcDbEntity
  8
VISIBLE
 62
7
100
AcDbPolyline
 90
17
 70
0
 10
106.847569
 20
-90.039594
 30
0.0
 10
107.337349
 20
-90.014617
 30
0.0
 10
107.822066
 20
-89.940920
 30
0.0
 10
108.297421
 20
-89.820267
 30
0.0
 10
108.759109
 20
-89.654445
 30
0.0
 10
109.202827
 20
-89.445236
 30
0.0
 10
109.624266
 20
-89.194423
 30
0.0
 10
110.019126
 20
-88.903787
 30
0.0
 10
110.383103
 20
-88.575111
 30
0.0
 10
110.711779
 20
-88.211135
 30
0.0
 10
111.002414
 20
-87.816275
 30
0.0
 10
111.253228
 20
-87.394836
 30
0.0
 10
111.462436
 20
-86.951120
 30
0.0
 10
111.628256
 20
-86.489430
 30
0.0
 10
111.748909
 20
-86.014075
 30
0.0
 10
111.822605
 20
-85.529358
 30
0.0
 10
111.847554
 20
-85.039578
 30
0.0
  0
LWPOLYLINE
  5
101
100
AcDbEntity
  8
VISIBLE
 62
7
100
AcDbPolyline
 90
9
 70
0
 10
86.847570
 20
-126.239592
 30
0.0
 10
86.847570
 20
-125.934405
 30
0.0
 10
86.847570
 20
-125.629218
 30
0.0
 10
86.847570
 20
-125.324029
 30
0.0
 10
86.847570
 20
-125.018842
 30
0.0
 10
86.847570
 20
-124.713656
 30
0.0
 10
86.847570
 20
-124.408466
 30
0.0
 10
86.847570
 20
-124.103280
 30
0.0
 10
86.847570
 20
-123.798093
 30
0.0
  0
LWPOLYLINE
  5
102
100
AcDbEntity
  8
VISIBLE
 62
7
100
AcDbPolyline
 90
9
 70
0
 10
159.847568
 20
-110.526593
 30
0.0
 10
156.347569
 20
-110.526593
 30
0.0
 10
152.847568
 20
-110.526593
 30
0.0
 10
149.347569
 20
-110.526593
 30
0.0
 10
145.847570
 20
-110.526593
 30
0.0
 10
142.347569
 20
-110.526593
 30
0.0
 10
138.847570
 20
-110.526593
 30
0.0
 10
135.347569
 20
-110.526593
 30
0.0
 10
131.847570
 20
-110.526593
 30
0.0
  0
LWPOLYLINE
  5
103
100
AcDbEntity
  8
VISIBLE
 62
7
100
AcDbPolyline
 90
9
 70
0
 10
116.847569
 20
-65.526593
 30
0.0
 10
118.097568
 20
-65.526593
 30
0.0
 10
119.347570
 20
-65.526593
 30
0.0
 10
120.597569
 20
-65.526593
 30
0.0
 10
121.847568
 20
-65.526593
 30
0.0
 10
123.097569
 20
-65.526593
 30
0.0
 10
124.347568
 20
-65.526593
 30
0.0
 10
125.597570
 20
-65.526593
 30
0.0
 10
126.847569
 20
-65.526593
 30
0.0
  0
LWPOLYLINE
  5
104
100
AcDbEntity
  8
VISIBLE
 62
7
100
AcDbPolyline
 90
9
 70
0
 10
91.847568
 20
-90.039594
 30
0.0
 10
93.722568
 20
-90.039594
 30
0.0
 10
95.597568
 20
-90.039594
 30
0.0
 10
97.472568
 20
-90.039594
 30
0.0
 10
99.347570
 20
-90.039594
 30
0.0
 10
101.222570
 20
-90.039594
 30
0.0
 10
103.097570
 20
-90.039594
 30
0.0
 10
104.972570
 20
-90.039594
 30
0.0
 10
106.847569
 20
-90.039594
 30
0.0
  0
LWPOLYLINE
  5
105
100
AcDbEntity
  8
VISIBLE
 62
7
100
AcDbPolyline
 90
17
 70
0
 10
86.847570
 20
-97.255093
 30
0.0
 10
85.709514
 20
-98.665939
 30
0.0
 10
84.706246
 20
-100.175204
 30
0.0
 10
83.842987
 20
-101.769122
 30
0.0
 10
83.124963
 20
-103.433922
 30
0.0
 10
82.557403
 20
-105.155836
 30
0.0
 10
82.145533
 20
-106.921100
 30
0.0
 10
81.894578
 20
-108.715940
 30
0.0
 10
81.809765
 20
-110.526593
 30
0.0
 10
81.894578
 20
-112.337246
 30
0.0
 10
82.145533
 20
-114.132086
 30
0.0
 10
82.557403
 20
-115.897350
 30
0.0
 10
83.124963
 20
-117.619264
 30
0.0
 10
83.842987
 20
-119.284064
 30
0.0
 10
84.706246
 20
-120.877982
 30
0.0
 10
85.709514
 20
-122.387247
 30
0.0
 10
86.847570
 20
-123.798093
 30
0.0
  0
LWPOLYLINE
  5
106
100
AcDbEntity
  8
VISIBLE
 62
7
100
AcDbPolyline
 90
17
 70
0
 10
111.847568
 20
-136.239594
 30
0.0
 10
111.822619
 20
-135.749815
 30
0.0
 10
111.748923
 20
-135.265098
 30
0.0
 10
111.628270
 20
-134.789743
 30
0.0
 10
111.462450
 20
-134.328052
 30
0.0
 10
111.253242
 20
-133.884337
 30
0.0
 10
111.002428
 20
-133.462897
 30
0.0
 10
110.711793
 20
-133.068037
 30
0.0
 10
110.383117
 20
-132.704061
 30
0.0
 10
110.019140
 20
-132.375385
 30
0.0
 10
109.624281
 20
-132.084750
 30
0.0
 10
109.202841
 20
-131.833936
 30
0.0
 10
108.759123
 20
-131.624728
 30
0.0
 10
108.297435
 20
-131.458905
 30
0.0
 10
107.822080
 20
-131.338252
 30
0.0
 10
107.337363
 20
-131.264556
 30
0.0
 10
106.847584
 20
-131.239607
 30
0.0
  0
LWPOLYLINE
  5
107
100
AcDbEntity
  8
VISIBLE
 62
7
100
AcDbPolyline
 90
9
 70
0
 10
131.847570
 20
-110.526593
 30
0.0
 10
131.847570
 20
-114.276592
 30
0.0
 10
131.847570
 20
-118.026592
 30
0.0
 10
131.847570
 20
-121.776592
 30
0.0
 10
131.847570
 20
-125.526591
 30
0.0
 10
131.847570
 20
-129.276594
 30
0.0
 10
131.847570
 20
-133.026593
 30
0.0
 10
131.847570
 20
-136.776593
 30
0.0
 10
131.847570
 20
-140.526592
 30
0.0
  0
LWPOLYLINE
  5
108
100
AcDbEntity
  8
VISIBLE
 62
7
100
AcDbPolyline
 90
17
 70
0
 10
116.847569
 20
-65.526593
 30
0.0
 10
116.357789
 20
-65.551569
 30
0.0
 10
115.873070
 20
-65.625266
 30
0.0
 10
115.397715
 20
-65.745919
 30
0.0
 10
114.936027
 20
-65.911738
 30
0.0
 10
114.492312
 20
-66.120947
 30
0.0
 10
114.070872
 20
-66.371761
 30
0.0
 10
113.676009
 20
-66.662399
 30
0.0
 10
113.312033
 20
-66.991072
 30
0.0
 10
112.983360
 20
-67.355048
 30
0.0
 10
112.692722
 20
-67.749911
 30
0.0
 10
112.441908
 20
-68.171351
 30
0.0
 10
112.232700
 20
-68.615066
 30
0.0
 10
112.066880
 20
-69.076753
 30
0.0
 10
111.946227
 20
-69.552109
 30
0.0
 10
111.872530
 20
-70.036828
 30
0.0
 10
111.847554
 20
-70.526608
 30
0.0
  0
LWPOLYLINE
  5
109
100
AcDbEntity
  8
VISIBLE
 62
7
100
AcDbPolyline
 90
65
 70
0
 10
141.947570
 20
-100.526593
 30
0.0
 10
141.934588
 20
-100.271907
 30
0.0
 10
141.896265
 20
-100.019855
 30
0.0
 10
141.833524
 20
-99.772670
 30
0.0
 10
141.747299
 20
-99.532592
 30
0.0
 10
141.638508
 20
-99.301859
 30
0.0
 10
141.508085
 20
-99.082710
 30
0.0
 10
141.356955
 20
-98.877382
 30
0.0
 10
141.186044
 20
-98.688116
 30
0.0
 10
140.996777
 20
-98.517205
 30
0.0
 10
140.791449
 20
-98.366075
 30
0.0
 10
140.572301
 20
-98.235651
 30
0.0
 10
140.341567
 20
-98.126863
 30
0.0
 10
140.101489
 20
-98.040636
 30
0.0
 10
139.854305
 20
-97.977898
 30
0.0
 10
139.602252
 20
-97.939575
 30
0.0
 10
139.347567
 20
-97.926593
 30
0.0
 10
139.092881
 20
-97.939575
 30
0.0
 10
138.840828
 20
-97.977898
 30
0.0
 10
138.593644
 20
-98.040636
 30
0.0
 10
138.353566
 20
-98.126863
 30
0.0
 10
138.122832
 20
-98.235651
 30
0.0
 10
137.903684
 20
-98.366075
 30
0.0
 10
137.698356
 20
-98.517205
 30
0.0
 10
137.509089
 20
-98.688116
 30
0.0
 10
137.338178
 20
-98.877382
 30
0.0
 10
137.187048
 20
-99.082710
 30
0.0
 10
137.056625
 20
-99.301859
 30
0.0
 10
136.947834
 20
-99.532592
 30
0.0
 10
136.861609
 20
-99.772670
 30
0.0
 10
136.798868
 20
-100.019855
 30
0.0
 10
136.760545
 20
-100.271907
 30
0.0
 10
136.747563
 20
-100.526593
 30
0.0
 10
136.760545
 20
-100.781279
 30
0.0
 10
136.798868
 20
-101.033332
 30
0.0
 10
136.861609
 20
-101.280516
 30
0.0
 10
136.947834
 20
-101.520594
 30
0.0
 10
137.056625
 20
-101.751328
 30
0.0
 10
137.187048
 20
-101.970476
 30
0.0
 10
137.338178
 20
-102.175804
 30
0.0
 10
137.509089
 20
-102.365071
 30
0.0
 10
137.698356
 20
-102.535982
 30
0.0
 10
137.903684
 20
-102.687112
 30
0.0
 10
138.122832
 20
-102.817535
 30
0.0
 10
138.353566
 20
-102.926323
 30
0.0
 10
138.593644
 20
-103.012550
 30
0.0
 10
138.840828
 20
-103.075288
 30
0.0
 10
139.092881
 20
-103.113611
 30
0.0
 10
139.347567
 20
-103.126594
 30
0.0
 10
139.602252
 20
-103.113611
 30
0.0
 10
139.854305
 20
-103.075288
 30
0.0
 10
140.101489
 20
-103.012550
 30
0.0
 10
140.341567
 20
-102.926323
 30
0.0
 10
140.572301
 20
-102.817535
 30
0.0
 10
140.791449
 20
-102.687112
 30
0.0
 10
140.996777
 20
-102.535982
 30
0.0
 10
141.186044
 20
-102.365071
 30
0.0
 10
141.356955
 20
-102.175804
 30
0.0
 10
141.508085
 20
-101.970476
 30
0.0
 10
141.638508
 20
-101.751328
 30
0.0
 10
141.747299
 20
-101.520594
 30
0.0
 10
141.833524
 20
-101.280516
 30
0.0
 10
141.896265
 20
-101.033332
 30
0.0
 10
141.934588
 20
-100.781279
 30
0.0
 10
141.947570
 20
-100.526593
 30
0.0
  0
LWPOLYLINE
  5
10a
100
AcDbEntity
  8
VISIBLE
 62
7
100
AcDbPolyline
 90
33
 70
0
 10
130.722568
 20
-70.526594
 30
0.0
 10
130.682436
 20
-70.164015
 30
0.0
 10
130.567932
 20
-69.819145
 30
0.0
 10
130.388493
 20
-69.501425
 30
0.0
 10
130.153554
 20
-69.220297
 30
0.0
 10
129.872554
 20
-68.985203
 30
0.0
 10
129.554932
 20
-68.805589
 30
0.0
 10
129.210125
 20
-68.690896
 30
0.0
 10
128.847568
 20
-68.650567
 30
0.0
 10
128.485011
 20
-68.690896
 30
0.0
 10
128.140203
 20
-68.805589
 30
0.0
 10
127.822582
 20
-68.985203
 30
0.0
 10
127.541582
 20
-69.220297
 30
0.0
 10
127.306643
 20
-69.501425
 30
0.0
 10
127.127203
 20
-69.819145
 30
0.0
 10
127.012700
 20
-70.164015
 30
0.0
 10
126.972568
 20
-70.526594
 30
0.0
 10
127.012700
 20
-70.889173
 30
0.0
 10
127.127203
 20
-71.234043
 30
0.0
 10
127.306643
 20
-71.551763
 30
0.0
 10
127.541582
 20
-71.832891
 30
0.0
 10
127.822582
 20
-72.067984
 30
0.0
 10
128.140203
 20
-72.247599
 30
0.0
 10
128.485011
 20
-72.362291
 30
0.0
 10
128.847568
 20
-72.402621
 30
0.0
 10
129.210125
 20
-72.362291
 30
0.0
 10
129.554932
 20
-72.247599
 30
0.0
 10
129.872554
 20
-72.067984
 30
0.0
 10
130.153554
 20
-71.832891
 30
0.0
 10
130.388493
 20
-71.551763
 30
0.0
 10
130.567932
 20
-71.234043
 30
0.0
 10
130.682436
 20
-70.889173
 30
0.0
 10
130.722568
 20
-70.526594
 30
0.0
  0
LWPOLYLINE
  5
10b
100
AcDbEntity
  8
VISIBLE
 62
7
100
AcDbPolyline
 90
9
 70
0
 10
164.847569
 20
-95.526592
 30
0.0
 10
164.847569
 20
-96.776591
 30
0.0
 10
164.847569
 20
-98.026593
 30
0.0
 10
164.847569
 20
-99.276594
 30
0.0
 10
164.847569
 20
-100.526593
 30
0.0
 10
164.847569
 20
-101.776592
 30
0.0
 10
164.847569
 20
-103.026594
 30
0.0
 10
164.847569
 20
-104.276596
 30
0.0
 10
164.847569
 20
-105.526594
 30
0.0
  0
LWPOLYLINE
  5
10c
100
AcDbEntity
  8
VISIBLE
 62
7
100
AcDbPolyline
 90
33
 70
0
 10
98.947568
 20
-95.251592
 30
0.0
 10
98.902433
 20
-94.845663
 30
0.0
 10
98.774069
 20
-94.459592
 30
0.0
 10
98.573037
 20
-94.103935
 30
0.0
 10
98.309901
 20
-93.789257
 30
0.0
 10
97.995226
 20
-93.526122
 30
0.0
 10
97.639570
 20
-93.325092
 30
0.0
 10
97.253496
 20
-93.196729
 30
0.0
 10
96.847570
 20
-93.151593
 30
0.0
 10
96.441641
 20
-93.196729
 30
0.0
 10
96.055567
 20
-93.325092
 30
0.0
 10
95.699910
 20
-93.526122
 30
0.0
 10
95.385235
 20
-93.789257
 30
0.0
 10
95.122100
 20
-94.103935
 30
0.0
 10
94.921067
 20
-94.459592
 30
0.0
 10
94.792704
 20
-94.845663
 30
0.0
 10
94.747568
 20
-95.251592
 30
0.0
 10
94.792704
 20
-95.657520
 30
0.0
 10
94.921067
 20
-96.043592
 30
0.0
 10
95.122100
 20
-96.399248
 30
0.0
 10
95.385235
 20
-96.713926
 30
0.0
 10
95.699910
 20
-96.977062
 30
0.0
 10
96.055567
 20
-97.178091
 30
0.0
 10
96.441641
 20
-97.306455
 30
0.0
 10
96.847570
 20
-97.351590
 30
0.0
 10
97.253496
 20
-97.306455
 30
0.0
 10
97.639570
 20
-97.178091
 30
0.0
 10
97.995226
 20
-96.977062
 30
0.0
 10
98.309901
 20
-96.713926
 30
0.0
 10
98.573037
 20
-96.399248
 30
0.0
 10
98.774069
 20
-96.043592
 30
0.0
 10
98.902433
 20
-95.657520
 30
0.0
 10
98.947568
 20
-95.251592
 30
0.0
  0
LWPOLYLINE
  5
10d
100
AcDbEntity
  8
VISIBLE
 62
7
100
AcDbPolyline
 90
9
 70
0
 10
111.847568
 20
-85.039592
 30
0.0
 10
111.847568
 20
-83.225468
 30
0.0
 10
111.847568
 20
-81.411343
 30
0.0
 10
111.847568
 20
-79.597219
 30
0.0
 10
111.847568
 20
-77.783092
 30
0.0
 10
111.847568
 20
-75.968967
 30
0.0
 10
111.847568
 20
-74.154843
 30
0.0
 10
111.847568
 20
-72.340718
 30
0.0
 10
111.847568
 20
-70.526594
 30
0.0
  0
LWPOLYLINE
  5
10e
100
AcDbEntity
  8
VISIBLE
 62
7
100
AcDbPolyline
 90
17
 70
0
 10
164.847569
 20
-95.526592
 30
0.0
 10
164.822621
 20
-95.036812
 30
0.0
 10
164.748924
 20
-94.552095
 30
0.0
 10
164.628271
 20
-94.076740
 30
0.0
 10
164.462449
 20
-93.615053
 30
0.0
 10
164.253240
 20
-93.171335
 30
0.0
 10
164.002426
 20
-92.749895
 30
0.0
 10
163.711791
 20
-92.355035
 30
0.0
 10
163.383115
 20
-91.991059
 30
0.0
 10
163.019139
 20
-91.662383
 30
0.0
 10
162.624279
 20
-91.371747
 30
0.0
 10
162.202839
 20
-91.120934
 30
0.0
 10
161.759124
 20
-90.911725
 30
0.0
 10
161.297434
 20
-90.745905
 30
0.0
 10
160.822078
 20
-90.625253
 30
0.0
 10
160.337362
 20
-90.551556
 30
0.0
 10
159.847582
 20
-90.526608
 30
0.0
  0
LWPOLYLINE
  5
10f
100
AcDbEntity
  8
VISIBLE
 62
7
100
AcDbPolyline
 90
9
 70
0
 10
86.847570
 20
-97.255093
 30
0.0
 10
86.847570
 20
-96.978154
 30
0.0
 10
86.847570
 20
-96.701218
 30
0.0
 10
86.847570
 20
-96.424282
 30
0.0
 10
86.847570
 20
-96.147342
 30
0.0
 10
86.847570
 20
-95.870406
 30
0.0
 10
86.847570
 20
-95.593467
 30
0.0
 10
86.847570
 20
-95.316531
 30
0.0
 10
86.847570
 20
-95.039592
 30
0.0
  0
LWPOLYLINE
  5
110
100
AcDbEntity
  8
VISIBLE
 62
7
100
AcDbPolyline
 90
17
 70
0
 10
86.847570
 20
-126.239592
 30
0.0
 10
86.872518
 20
-126.729371
 30
0.0
 10
86.946215
 20
-127.214088
 30
0.0
 10
87.066868
 20
-127.689443
 30
0.0
 10
87.232688
 20
-128.151134
 30
0.0
 10
87.441896
 20
-128.594849
 30
0.0
 10
87.692710
 20
-129.016289
 30
0.0
 10
87.983345
 20
-129.411149
 30
0.0
 10
88.312021
 20
-129.775125
 30
0.0
 10
88.675997
 20
-130.103801
 30
0.0
 10
89.070857
 20
-130.394436
 30
0.0
 10
89.492297
 20
-130.645250
 30
0.0
 10
89.936015
 20
-130.854458
 30
0.0
 10
90.397703
 20
-131.020281
 30
0.0
 10
90.873058
 20
-131.140934
 30
0.0
 10
91.357775
 20
-131.214630
 30
0.0
 10
91.847554
 20
-131.239607
 30
0.0
  0
LWPOLYLINE
  5
111
100
AcDbEntity
  8
VISIBLE
 62
7
100
AcDbPolyline
 90
17
 70
0
 10
159.847568
 20
-110.526593
 30
0.0
 10
160.337348
 20
-110.501616
 30
0.0
 10
160.822064
 20
-110.427920
 30
0.0
 10
161.297420
 20
-110.307267
 30
0.0
 10
161.759110
 20
-110.141447
 30
0.0
 10
162.202825
 20
-109.932239
 30
0.0
 10
162.624265
 20
-109.681425
 30
0.0
 10
163.019125
 20
-109.390790
 30
0.0
 10
163.383101
 20
-109.062114
 30
0.0
 10
163.711777
 20
-108.698137
 30
0.0
 10
164.002412
 20
-108.303277
 30
0.0
 10
164.253226
 20
-107.881838
 30
0.0
 10
164.462435
 20
-107.438119
 30
0.0
 10
164.628257
 20
-106.976432
 30
0.0
 10
164.748910
 20
-106.501077
 30
0.0
 10
164.822607
 20
-106.016360
 30
0.0
 10
164.847555
 20
-105.526580
 30
0.0
  0
LWPOLYLINE
  5
112
100
AcDbEntity
  8
VISIBLE
 62
7
100
AcDbPolyline
 90
33
 70
0
 10
98.947568
 20
-126.239592
 30
0.0
 10
98.902433
 20
-125.833663
 30
0.0
 10
98.774069
 20
-125.447592
 30
0.0
 10
98.573037
 20
-125.091935
 30
0.0
 10
98.309901
 20
-124.777257
 30
0.0
 10
97.995226
 20
-124.514122
 30
0.0
 10
97.639570
 20
-124.313092
 30
0.0
 10
97.253496
 20
-124.184729
 30
0.0
 10
96.847570
 20
-124.139593
 30
0.0
 10
96.441641
 20
-124.184729
 30
0.0
 10
96.055567
 20
-124.313092
 30
0.0
 10
95.699910
 20
-124.514122
 30
0.0
 10
95.385235
 20
-124.777257
 30
0.0
 10
95.122100
 20
-125.091935
 30
0.0
 10
94.921067
 20
-125.447592
 30
0.0
 10
94.792704
 20
-125.833663
 30
0.0
 10
94.747568
 20
-126.239592
 30
0.0
 10
94.792704
 20
-126.645520
 30
0.0
 10
94.921067
 20
-127.031592
 30
0.0
 10
95.122100
 20
-127.387248
 30
0.0
 10
95.385235
 20
-127.701926
 30
0.0
 10
95.699910
 20
-127.965062
 30
0.0
 10
96.055567
 20
-128.166091
 30
0.0
 10
96.441641
 20
-128.294455
 30
0.0
 10
96.847570
 20
-128.339590
 30
0.0
 10
97.253496
 20
-128.294455
 30
0.0
 10
97.639570
 20
-128.166091
 30
0.0
 10
97.995226
 20
-127.965062
 30
0.0
 10
98.309901
 20
-127.701926
 30
0.0
 10
98.573037
 20
-127.387248
 30
0.0
 10
98.774069
 20
-127.031592
 30
0.0
 10
98.902433
 20
-126.645520
 30
0.0
 10
98.947568
 20
-126.239592
 30
0.0
  0
LWPOLYLINE
  5
113
100
AcDbEntity
  8
VISIBLE
 62
7
100
AcDbPolyline
 90
17
 70
0
 10
91.847568
 20
-90.039594
 30
0.0
 10
91.357789
 20
-90.064542
 30
0.0
 10
90.873072
 20
-90.138239
 30
0.0
 10
90.397717
 20
-90.258892
 30
0.0
 10
89.936029
 20
-90.424711
 30
0.0
 10
89.492314
 20
-90.633923
 30
0.0
 10
89.070874
 20
-90.884736
 30
0.0
 10
88.676012
 20
-91.175372
 30
0.0
 10
88.312035
 20
-91.504045
 30
0.0
 10
87.983362
 20
-91.868021
 30
0.0
 10
87.692727
 20
-92.262884
 30
0.0
 10
87.441913
 20
-92.684323
 30
0.0
 10
87.232702
 20
-93.128039
 30
0.0
 10
87.066882
 20
-93.589726
 30
0.0
 10
86.946229
 20
-94.065082
 30
0.0
 10
86.872532
 20
-94.549798
 30
0.0
 10
86.847584
 20
-95.039578
 30
0.0
  0
LWPOLYLINE
  5
114
100
AcDbEntity
  8
VISIBLE
 62
7
100
AcDbPolyline
 90
17
 70
0
 10
111.847568
 20
-140.526592
 30
0.0
 10
111.872545
 20
-141.016372
 30
0.0
 10
111.946241
 20
-141.501091
 30
0.0
 10
112.066894
 20
-141.976447
 30
0.0
 10
112.232714
 20
-142.438134
 30
0.0
 10
112.441922
 20
-142.881850
 30
0.0
 10
112.692736
 20
-143.303289
 30
0.0
 10
112.983374
 20
-143.698152
 30
0.0
 10
113.312047
 20
-144.062128
 30
0.0
 10
113.676024
 20
-144.390801
 30
0.0
 10
114.070886
 20
-144.681440
 30
0.0
 10
114.492326
 20
-144.932253
 30
0.0
 10
114.936041
 20
-145.141462
 30
0.0
 10
115.397729
 20
-145.307281
 30
0.0
 10
115.873084
 20
-145.427934
 30
0.0
 10
116.357804
 20
-145.501631
 30
0.0
 10
116.847583
 20
-145.526579
 30
0.0
  0
LWPOLYLINE
  5
115
100
AcDbEntity
  8
VISIBLE
 62
7
100
AcDbPolyline
 90
65
 70
0
 10
161.947569
 20
-100.526593
 30
0.0
 10
161.934587
 20
-100.271907
 30
0.0
 10
161.896264
 20
-100.019855
 30
0.0
 10
161.833523
 20
-99.772670
 30
0.0
 10
161.747299
 20
-99.532592
 30
0.0
 10
161.638508
 20
-99.301859
 30
0.0
 10
161.508084
 20
-99.082710
 30
0.0
 10
161.356954
 20
-98.877382
 30
0.0
 10
161.186043
 20
-98.688116
 30
0.0
 10
160.996777
 20
-98.517205
 30
0.0
 10
160.791449
 20
-98.366075
 30
0.0
 10
160.572300
 20
-98.235651
 30
0.0
 10
160.341567
 20
-98.126863
 30
0.0
 10
160.101489
 20
-98.040636
 30
0.0
 10
159.854305
 20
-97.977898
 30
0.0
 10
159.602252
 20
-97.939575
 30
0.0
 10
159.347566
 20
-97.926593
 30
0.0
 10
159.092880
 20
-97.939575
 30
0.0
 10
158.840828
 20
-97.977898
 30
0.0
 10
158.593643
 20
-98.040636
 30
0.0
 10
158.353565
 20
-98.126863
 30
0.0
 10
158.122832
 20
-98.235651
 30
0.0
 10
157.903683
 20
-98.366075
 30
0.0
 10
157.698355
 20
-98.517205
 30
0.0
 10
157.509089
 20
-98.688116
 30
0.0
 10
157.338178
 20
-98.877382
 30
0.0
 10
157.187048
 20
-99.082710
 30
0.0
 10
157.056624
 20
-99.301859
 30
0.0
 10
156.947833
 20
-99.532592
 30
0.0
 10
156.861609
 20
-99.772670
 30
0.0
 10
156.798868
 20
-100.019855
 30
0.0
 10
156.760545
 20
-100.271907
 30
0.0
 10
156.747563
 20
-100.526593
 30
0.0
 10
156.760545
 20
-100.781279
 30
0.0
 10
156.798868
 20
-101.033332
 30
0.0
 10
156.861609
 20
-101.280516
 30
0.0
 10
156.947833
 20
-101.520594
 30
0.0
 10
157.056624
 20
-101.751328
 30
0.0
 10
157.187048
 20
-101.970476
 30
0.0
 10
157.338178
 20
-102.175804
 30
0.0
 10
157.509089
 20
-102.365071
 30
0.0
 10
157.698355
 20
-102.535982
 30
0.0
 10
157.903683
 20
-102.687112
 30
0.0
 10
158.122832
 20
-102.817535
 30
0.0
 10
158.353565
 20
-102.926323
 30
0.0
 10
158.593643
 20
-103.012550
 30
0.0
 10
158.840828
 20
-103.075288
 30
0.0
 10
159.092880
 20
-103.113611
 30
0.0
 10
159.347566
 20
-103.126594
 30
0.0
 10
159.602252
 20
-103.113611
 30
0.0
 10
159.854305
 20
-103.075288
 30
0.0
 10
160.101489
 20
-103.012550
 30
0.0
 10
160.341567
 20
-102.926323
 30
0.0
 10
160.572300
 20
-102.817535
 30
0.0
 10
160.791449
 20
-102.687112
 30
0.0
 10
160.996777
 20
-102.535982
 30
0.0
 10
161.186043
 20
-102.365071
 30
0.0
 10
161.356954
 20
-102.175804
 30
0.0
 10
161.508084
 20
-101.970476
 30
0.0
 10
161.638508
 20
-101.751328
 30
0.0
 10
161.747299
 20
-101.520594
 30
0.0
 10
161.833523
 20
-101.280516
 30
0.0
 10
161.896264
 20
-101.033332
 30
0.0
 10
161.934587
 20
-100.781279
 30
0.0
 10
161.947569
 20
-100.526593
 30
0.0
  0
LWPOLYLINE
  5
116
100
AcDbEntity
  8
VISIBLE
 62
7
100
AcDbPolyline
 90
9
 70
0
 10
131.847570
 20
-90.526593
 30
0.0
 10
135.347569
 20
-90.526593
 30
0.0
 10
138.847570
 20
-90.526593
 30
0.0
 10
142.347569
 20
-90.526593
 30
0.0
 10
145.847570
 20
-90.526593
 30
0.0
 10
149.347569
 20
-90.526593
 30
0.0
 10
152.847568
 20
-90.526593
 30
0.0
 10
156.347569
 20
-90.526593
 30
0.0
 10
159.847568
 20
-90.526593
 30
0.0
  0
LWPOLYLINE
  5
117
100
AcDbEntity
  8
VISIBLE
 62
7
100
AcDbPolyline
 90
9
 70
0
 10
106.847569
 20
-131.239593
 30
0.0
 10
104.972570
 20
-131.239593
 30
0.0
 10
103.097570
 20
-131.239593
 30
0.0
 10
101.222570
 20
-131.239593
 30
0.0
 10
99.347570
 20
-131.239593
 30
0.0
 10
97.472568
 20
-131.239593
 30
0.0
 10
95.597568
 20
-131.239593
 30
0.0
 10
93.722568
 20
-131.239593
 30
0.0
 10
91.847568
 20
-131.239593
 30
0.0
  0
LWPOLYLINE
  5
118
100
AcDbEntity
  8
VISIBLE
 62
7
100
AcDbPolyline
 90
9
 70
0
 10
126.847569
 20
-145.526593
 30
0.0
 10
125.597570
 20
-145.526593
 30
0.0
 10
124.347568
 20
-145.526593
 30
0.0
 10
123.097569
 20
-145.526593
 30
0.0
 10
121.847568
 20
-145.526593
 30
0.0
 10
120.597569
 20
-145.526593
 30
0.0
 10
119.347570
 20
-145.526593
 30
0.0
 10
118.097568
 20
-145.526593
 30
0.0
 10
116.847569
 20
-145.526593
 30
0.0
  0
LWPOLYLINE
  5
119
100
AcDbEntity
  8
VISIBLE
 62
7
100
AcDbPolyline
 90
9
 70
0
 10
111.847568
 20
-140.526592
 30
0.0
 10
111.847568
 20
-139.990717
 30
0.0
 10
111.847568
 20
-139.454842
 30
0.0
 10
111.847568
 20
-138.918967
 30
0.0
 10
111.847568
 20
-138.383092
 30
0.0
 10
111.847568
 20
-137.847220
 30
0.0
 10
111.847568
 20
-137.311344
 30
0.0
 10
111.847568
 20
-136.775469
 30
0.0
 10
111.847568
 20
-136.239594
 30
0.0
  0
LWPOLYLINE
  5
11a
100
AcDbEntity
  8
VISIBLE
 62
7
100
AcDbPolyline
 90
33
 70
0
 10
130.722568
 20
-140.526592
 30
0.0
 10
130.682436
 20
-140.164013
 30
0.0
 10
130.567932
 20
-139.819143
 30
0.0
 10
130.388493
 20
-139.501423
 30
0.0
 10
130.153554
 20
-139.220296
 30
0.0
 10
129.872554
 20
-138.985202
 30
0.0
 10
129.554932
 20
-138.805587
 30
0.0
 10
129.210125
 20
-138.690895
 30
0.0
 10
128.847568
 20
-138.650565
 30
0.0
 10
128.485011
 20
-138.690895
 30
0.0
 10
128.140203
 20
-138.805587
 30
0.0
 10
127.822582
 20
-138.985202
 30
0.0
 10
127.541582
 20
-139.220296
 30
0.0
 10
127.306643
 20
-139.501423
 30
0.0
 10
127.127203
 20
-139.819143
 30
0.0
 10
127.012700
 20
-140.164013
 30
0.0
 10
126.972568
 20
-140.526592
 30
0.0
 10
127.012700
 20
-140.889172
 30
0.0
 10
127.127203
 20
-141.234041
 30
0.0
 10
127.306643
 20
-141.551762
 30
0.0
 10
127.541582
 20
-141.832889
 30
0.0
 10
127.822582
 20
-142.067983
 30
0.0
 10
128.140203
 20
-142.247597
 30
0.0
 10
128.485011
 20
-142.362290
 30
0.0
 10
128.847568
 20
-142.402619
 30
0.0
 10
129.210125
 20
-142.362290
 30
0.0
 10
129.554932
 20
-142.247597
 30
0.0
 10
129.872554
 20
-142.067983
 30
0.0
 10
130.153554
 20
-141.832889
 30
0.0
 10
130.388493
 20
-141.551762
 30
0.0
 10
130.567932
 20
-141.234041
 30
0.0
 10
130.682436
 20
-140.889172
 30
0.0
 10
130.722568
 20
-140.526592
 30
0.0
  0
LWPOLYLINE
  5
11b
100
AcDbEntity
  8
VISIBLE
 62
7
100
AcDbPolyline
 90
33
 70
0
 10
116.722570
 20
-70.526594
 30
0.0
 10
116.682272
 20
-70.164158
 30
0.0
 10
116.567658
 20
-69.819449
 30
0.0
 10
116.388168
 20
-69.501899
 30
0.0
 10
116.153226
 20
-69.220938
 30
0.0
 10
115.872263
 20
-68.985996
 30
0.0
 10
115.554712
 20
-68.806503
 30
0.0
 10
115.210006
 20
-68.691893
 30
0.0
 10
114.847568
 20
-68.651594
 30
0.0
 10
114.485132
 20
-68.691893
 30
0.0
 10
114.140426
 20
-68.806503
 30
0.0
 10
113.822875
 20
-68.985996
 30
0.0
 10
113.541912
 20
-69.220938
 30
0.0
 10
113.306970
 20
-69.501899
 30
0.0
 10
113.127480
 20
-69.819449
 30
0.0
 10
113.012866
 20
-70.164158
 30
0.0
 10
112.972568
 20
-70.526594
 30
0.0
 10
113.012866
 20
-70.889029
 30
0.0
 10
113.127480
 20
-71.233738
 30
0.0
 10
113.306970
 20
-71.551289
 30
0.0
 10
113.541912
 20
-71.832250
 30
0.0
 10
113.822875
 20
-72.067191
 30
0.0
 10
114.140426
 20
-72.246685
 30
0.0
 10
114.485132
 20
-72.361295
 30
0.0
 10
114.847568
 20
-72.401594
 30
0.0
 10
115.210006
 20
-72.361295
 30
0.0
 10
115.554712
 20
-72.246685
 30
0.0
 10
115.872263
 20
-72.067191
 30
0.0
 10
116.153226
 20
-71.832250
 30
0.0
 10
116.388168
 20
-71.551289
 30
0.0
 10
116.567658
 20
-71.233738
 30
0.0
 10
116.682272
 20
-70.889029
 30
0.0
 10
116.722570
 20
-70.526594
 30
0.0
  0
LWPOLYLINE
  5
11c
100
AcDbEntity
  8
VISIBLE
 62
7
100
AcDbPolyline
 90
17
 70
0
 10
126.847569
 20
-145.526593
 30
0.0
 10
127.337349
 20
-145.501645
 30
0.0
 10
127.822068
 20
-145.427948
 30
0.0
 10
128.297424
 20
-145.307296
 30
0.0
 10
128.759111
 20
-145.141476
 30
0.0
 10
129.202826
 20
-144.932267
 30
0.0
 10
129.624266
 20
-144.681454
 30
0.0
 10
130.019129
 20
-144.390816
 30
0.0
 10
130.383105
 20
-144.062142
 30
0.0
 10
130.711778
 20
-143.698166
 30
0.0
 10
131.002416
 20
-143.303303
 30
0.0
 10
131.253230
 20
-142.881864
 30
0.0
 10
131.462439
 20
-142.438148
 30
0.0
 10
131.628258
 20
-141.976461
 30
0.0
 10
131.748911
 20
-141.501106
 30
0.0
 10
131.822608
 20
-141.016386
 30
0.0
 10
131.847556
 20
-140.526606
 30
0.0
  0
LWPOLYLINE
  5
11d
100
AcDbEntity
  8
VISIBLE
 62
7
100
AcDbPolyline
 90
33
 70
0
 10
116.722570
 20
-140.526592
 30
0.0
 10
116.682272
 20
-140.164157
 30
0.0
 10
116.567658
 20
-139.819448
 30
0.0
 10
116.388168
 20
-139.501897
 30
0.0
 10
116.153226
 20
-139.220936
 30
0.0
 10
115.872263
 20
-138.985995
 30
0.0
 10
115.554712
 20
-138.806501
 30
0.0
 10
115.210006
 20
-138.691891
 30
0.0
 10
114.847568
 20
-138.651592
 30
0.0
 10
114.485132
 20
-138.691891
 30
0.0
 10
114.140426
 20
-138.806501
 30
0.0
 10
113.822875
 20
-138.985995
 30
0.0
 10
113.541912
 20
-139.220936
 30
0.0
 10
113.306970
 20
-139.501897
 30
0.0
 10
113.127480
 20
-139.819448
 30
0.0
 10
113.012866
 20
-140.164157
 30
0.0
 10
112.972568
 20
-140.526592
 30
0.0
 10
113.012866
 20
-140.889028
 30
0.0
 10
113.127480
 20
-141.233737
 30
0.0
 10
113.306970
 20
-141.551287
 30
0.0
 10
113.541912
 20
-141.832248
 30
0.0
 10
113.822875
 20
-142.067190
 30
0.0
 10
114.140426
 20
-142.246683
 30
0.0
 10
114.485132
 20
-142.361293
 30
0.0
 10
114.847568
 20
-142.401592
 30
0.0
 10
115.210006
 20
-142.361293
 30
0.0
 10
115.554712
 20
-142.246683
 30
0.0
 10
115.872263
 20
-142.067190
 30
0.0
 10
116.153226
 20
-141.832248
 30
0.0
 10
116.388168
 20
-141.551287
 30
0.0
 10
116.567658
 20
-141.233737
 30
0.0
 10
116.682272
 20
-140.889028
 30
0.0
 10
116.722570
 20
-140.526592
 30
0.0
  0
LWPOLYLINE
  5
11e
100
AcDbEntity
  8
VISIBLE
 62
7
100
AcDbPolyline
 90
17
 70
0
 10
131.847570
 20
-70.526594
 30
0.0
 10
131.822622
 20
-70.036814
 30
0.0
 10
131.748925
 20
-69.552095
 30
0.0
 10
131.628272
 20
-69.076739
 30
0.0
 10
131.462453
 20
-68.615052
 30
0.0
 10
131.253244
 20
-68.171337
 30
0.0
 10
131.002430
 20
-67.749897
 30
0.0
 10
130.711792
 20
-67.355034
 30
0.0
 10
130.383119
 20
-66.991058
 30
0.0
 10
130.019143
 20
-66.662385
 30
0.0
 10
129.624280
 20
-66.371747
 30
0.0
 10
129.202840
 20
-66.120933
 30
0.0
 10
128.759125
 20
-65.911724
 30
0.0
 10
128.297438
 20
-65.745905
 30
0.0
 10
127.822082
 20
-65.625252
 30
0.0
 10
127.337363
 20
-65.551555
 30
0.0
 10
126.847583
 20
-65.526579
 30
0.0
  0
LWPOLYLINE
  5
11f
100
AcDbEntity
  8
VISIBLE
 62
7
100
AcDbPolyline
 90
9
 70
0
 10
131.847570
 20
-70.526594
 30
0.0
 10
131.847570
 20
-73.026595
 30
0.0
 10
131.847570
 20
-75.526592
 30
0.0
 10
131.847570
 20
-78.026593
 30
0.0
 10
131.847570
 20
-80.526594
 30
0.0
 10
131.847570
 20
-83.026594
 30
0.0
 10
131.847570
 20
-85.526592
 30
0.0
 10
131.847570
 20
-88.026593
 30
0.0
 10
131.847570
 20
-90.526593
 30
0.0
  0
LWPOLYLINE
  5
120
100
AcDbEntity
  8
VISIBLE
 62
7
100
AcDbPolyline
 90
65
 70
0
 10
107.847570
 20
-110.526593
 30
0.0
 10
107.792653
 20
-109.449080
 30
0.0
 10
107.630519
 20
-108.382697
 30
0.0
 10
107.365086
 20
-107.336917
 30
0.0
 10
107.000277
 20
-106.321202
 30
0.0
 10
106.540018
 20
-105.345030
 30
0.0
 10
105.988228
 20
-104.417859
 30
0.0
 10
105.348828
 20
-103.549168
 30
0.0
 10
104.625744
 20
-102.748419
 30
0.0
 10
103.824995
 20
-102.025334
 30
0.0
 10
102.956304
 20
-101.385937
 30
0.0
 10
102.029133
 20
-100.834148
 30
0.0
 10
101.052960
 20
-100.373888
 30
0.0
 10
100.037245
 20
-100.009082
 30
0.0
 10
98.991465
 20
-99.743649
 30
0.0
 10
97.925083
 20
-99.581513
 30
0.0
 10
96.847570
 20
-99.526598
 30
0.0
 10
95.770057
 20
-99.581513
 30
0.0
 10
94.703674
 20
-99.743649
 30
0.0
 10
93.657894
 20
-100.009082
 30
0.0
 10
92.642179
 20
-100.373888
 30
0.0
 10
91.666006
 20
-100.834148
 30
0.0
 10
90.738836
 20
-101.385937
 30
0.0
 10
89.870145
 20
-102.025334
 30
0.0
 10
89.069395
 20
-102.748419
 30
0.0
 10
88.346311
 20
-103.549168
 30
0.0
 10
87.706911
 20
-104.417859
 30
0.0
 10
87.155122
 20
-105.345030
 30
0.0
 10
86.694862
 20
-106.321202
 30
0.0
 10
86.330053
 20
-107.336917
 30
0.0
 10
86.064621
 20
-108.382697
 30
0.0
 10
85.902487
 20
-109.449080
 30
0.0
 10
85.847569
 20
-110.526593
 30
0.0
 10
85.902487
 20
-111.604106
 30
0.0
 10
86.064621
 20
-112.670488
 30
0.0
 10
86.330053
 20
-113.716268
 30
0.0
 10
86.694862
 20
-114.731983
 30
0.0
 10
87.155122
 20
-115.708156
 30
0.0
 10
87.706911
 20
-116.635327
 30
0.0
 10
88.346311
 20
-117.504018
 30
0.0
 10
89.069395
 20
-118.304767
 30
0.0
 10
89.870145
 20
-119.027852
 30
0.0
 10
90.738836
 20
-119.667249
 30
0.0
 10
91.666006
 20
-120.219038
 30
0.0
 10
92.642179
 20
-120.679297
 30
0.0
 10
93.657894
 20
-121.044104
 30
0.0
 10
94.703674
 20
-121.309536
 30
0.0
 10
95.770057
 20
-121.471673
 30
0.0
 10
96.847570
 20
-121.526588
 30
0.0
 10
97.925083
 20
-121.471673
 30
0.0
 10
98.991465
 20
-121.309536
 30
0.0
 10
100.037245
 20
-121.044104
 30
0.0
 10
101.052960
 20
-120.679297
 30
0.0
 10
102.029133
 20
-120.219038
 30
0.0
 10
102.956304
 20
-119.667249
 30
0.0
 10
103.824995
 20
-119.027852
 30
0.0
 10
104.625744
 20
-118.304767
 30
0.0
 10
105.348828
 20
-117.504018
 30
0.0
 10
105.988228
 20
-116.635327
 30
0.0
 10
106.540018
 20
-115.708156
 30
0.0
 10
107.000277
 20
-114.731983
 30
0.0
 10
107.365086
 20
-113.716268
 30
0.0
 10
107.630519
 20
-112.670488
 30
0.0
 10
107.792653
 20
-111.604106
 30
0.0
 10
107.847570
 20
-110.526593
 30
0.0
  0
ENDSEC
  0
SECTION
  2
OBJECTS
  0
DICTIONARY
  5
C
330
0
100
AcDbDictionary
  3
ACAD_GROUP
350
D
  3
ACAD_MLINESTYLE
350
17
  0
DICTIONARY
  5
D
330
C
100
AcDbDictionary
  0
DICTIONARY
  5
1A
330
C
100
AcDbDictionary
  0
DICTIONARY
  5
17
330
C
100
AcDbDictionary
  3
STANDARD
350
18
  0
DICTIONARY
  5
19
330
C
100
AcDbDictionary
  0
ENDSEC
  0
EOF
