999
DXF created by Inkscape
  0
SECTION
  2
HEADER
  9
$ACADVER
  1
AC1014
  9
$HANDSEED
  5
FFFF
  9
$MEASUREMENT
 70
     1
  0
ENDSEC
  0
SECTION
  2
TABLES
  0
TABLE
  2
VPORT
  5
8
330
0
100
AcDbSymbolTable
 70
     4
  0
VPORT
  5
2E
330
8
100
AcDbSymbolTableRecord
100
AcDbViewportTableRecord
  2
*ACTIVE
 70
     0
 10
0.0
 20
0.0
 11
1.0
 21
1.0
 12
210.0
 22
148.5
 13
0.0
 23
0.0
 14
10.0
 24
10.0
 15
10.0
 25
10.0
 16
0.0
 26
0.0
 36
1.0
 17
0.0
 27
0.0
 37
0.0
 40
341.0
 41
1.24
 42
50.0
 43
0.0
 44
0.0
 50
0.0
 51
0.0
 71
     0
 72
   100
 73
     1
 74
     3
 75
     0
 76
     0
 77
     0
 78
     0
  0
ENDTAB
  0
TABLE
  2
LTYPE
  5
5
330
0
100
AcDbSymbolTable
 70
     1
  0
LTYPE
  5
14
330
5
100
AcDbSymbolTableRecord
100
AcDbLinetypeTableRecord
  2
BYBLOCK
 70
     0
  3

 72
    65
 73
     0
 40
0.0
  0
LTYPE
  5
15
330
5
100
AcDbSymbolTableRecord
100
AcDbLinetypeTableRecord
  2
BYLAYER
 70
     0
  3

 72
    65
 73
     0
 40
0.0
  0
LTYPE
  5
16
330
5
100
AcDbSymbolTableRecord
100
AcDbLinetypeTableRecord
  2
CONTINUOUS
 70
     0
  3
Solid line
 72
    65
 73
     0
 40
0.0
  0
ENDTAB
  0
TABLE
  2
LAYER
  5
2
100
AcDbSymbolTable
 70
2
  0
LAYER
  5
50
100
AcDbSymbolTableRecord
100
AcDbLayerTableRecord
  2
0
 70
0
  6
CONTINUOUS
  0
LAYER
  5
51
100
AcDbSymbolTableRecord
100
AcDbLayerTableRecord
  2
Layer_1
 70
0
  6
CONTINUOUS
  0
ENDTAB
  0
TABLE
  2
STYLE
  5
3
330
0
100
AcDbSymbolTable
 70
     1
  0
STYLE
  5
11
330
3
100
AcDbSymbolTableRecord
100
AcDbTextStyleTableRecord
  2
STANDARD
 70
     0
 40
0.0
 41
1.0
 50
0.0
 71
     0
 42
2.5
  3
txt
  4

  0
ENDTAB
  0
TABLE
  2
VIEW
  5
6
330
0
100
AcDbSymbolTable
 70
     0
  0
ENDTAB
  0
TABLE
  2
UCS
  5
7
330
0
100
AcDbSymbolTable
 70
     0
  0
ENDTAB
  0
TABLE
  2
APPID
  5
9
330
0
100
AcDbSymbolTable
 70
     2
  0
APPID
  5
12
330
9
100
AcDbSymbolTableRecord
100
AcDbRegAppTableRecord
  2
ACAD
 70
     0
  0
ENDTAB
  0
TABLE
  2
DIMSTYLE
  5
A
330
0
100
AcDbSymbolTable
 70
     1
  0
DIMSTYLE
105
27
330
A
100
AcDbSymbolTableRecord
100
AcDbDimStyleTableRecord
  2
ISO-25
 70
     0
  3

  4

  5

  6

  7

 40
1.0
 41
2.5
 42
0.625
 43
3.75
 44
1.25
 45
0.0
 46
0.0
 47
0.0
 48
0.0
140
2.5
141
2.5
142
0.0
143
0.03937007874016
144
1.0
145
0.0
146
1.0
147
0.625
 71
     0
 72
     0
 73
     0
 74
     0
 75
     0
 76
     0
 77
     1
 78
     8
170
     0
171
     3
172
     1
173
     0
174
     0
175
     0
176
     0
177
     0
178
     0
270
     2
271
     2
272
     2
273
     2
274
     3
340
11
275
     0
280
     0
281
     0
282
     0
283
     0
284
     8
285
     0
286
     0
287
     3
288
     0
  0
ENDTAB
  0
TABLE
  2
BLOCK_RECORD
  5
1
330
0
100
AcDbSymbolTable
 70
     1
  0
BLOCK_RECORD
  5
1F
330
1
100
AcDbSymbolTableRecord
100
AcDbBlockTableRecord
  2
*MODEL_SPACE
  0
BLOCK_RECORD
  5
1B
330
1
100
AcDbSymbolTableRecord
100
AcDbBlockTableRecord
  2
*PAPER_SPACE
  0
ENDTAB
  0
ENDSEC
  0
SECTION
  2
BLOCKS
  0
BLOCK
  5
20
330
1F
100
AcDbEntity
  8
0
100
AcDbBlockBegin
  2
*MODEL_SPACE
 70
     0
 10
0.0
 20
0.0
 30
0.0
  3
*MODEL_SPACE
  1

  0
ENDBLK
  5
21
330
1F
100
AcDbEntity
  8
0
100
AcDbBlockEnd
  0
BLOCK
  5
1C
330
1B
100
AcDbEntity
 67
     1
  8
0
100
AcDbBlockBegin
  2
*PAPER_SPACE
  1

  0
ENDBLK
  5
1D
330
1B
100
AcDbEntity
 67
     1
  8
0
100
AcDbBlockEnd
  0
ENDSEC
  0
SECTION
  2
ENTITIES
  0
LWPOLYLINE
  5
100
100
AcDbEntity
  8
Layer_1
 62
7
100
AcDbPolyline
 90
14
 70
0
 10
2.213093
 20
2.627444
 30
0.0
 10
1.470643
 20
4.974117
 30
0.0
 10
2.073883
 20
4.974117
 30
0.0
 10
2.513608
 20
3.436185
 30
0.0
 10
2.917978
 20
4.974117
 30
0.0
 10
3.516800
 20
4.974117
 30
0.0
 10
3.907911
 20
3.436185
 30
0.0
 10
4.356475
 20
4.974117
 30
0.0
 10
4.968553
 20
4.974117
 30
0.0
 10
4.215056
 20
2.627444
 30
0.0
 10
3.618444
 20
2.627444
 30
0.0
 10
3.214074
 20
4.136651
 30
0.0
 10
2.816333
 20
2.627444
 30
0.0
 10
2.213093
 20
2.627444
 30
0.0
  0
LWPOLYLINE
  5
101
100
AcDbEntity
  8
Layer_1
 62
7
100
AcDbPolyline
 90
14
 70
0
 10
5.730891
 20
2.627444
 30
0.0
 10
4.988441
 20
4.974117
 30
0.0
 10
5.591681
 20
4.974117
 30
0.0
 10
6.031406
 20
3.436185
 30
0.0
 10
6.435776
 20
4.974117
 30
0.0
 10
7.034598
 20
4.974117
 30
0.0
 10
7.425709
 20
3.436185
 30
0.0
 10
7.874273
 20
4.974117
 30
0.0
 10
8.486351
 20
4.974117
 30
0.0
 10
7.732854
 20
2.627444
 30
0.0
 10
7.136242
 20
2.627444
 30
0.0
 10
6.731872
 20
4.136651
 30
0.0
 10
6.334131
 20
2.627444
 30
0.0
 10
5.730891
 20
2.627444
 30
0.0
  0
LWPOLYLINE
  5
102
100
AcDbEntity
  8
Layer_1
 62
7
100
AcDbPolyline
 90
14
 70
0
 10
9.248689
 20
2.627444
 30
0.0
 10
8.506239
 20
4.974117
 30
0.0
 10
9.109479
 20
4.974117
 30
0.0
 10
9.549204
 20
3.436185
 30
0.0
 10
9.953574
 20
4.974117
 30
0.0
 10
10.552396
 20
4.974117
 30
0.0
 10
10.943507
 20
3.436185
 30
0.0
 10
11.392071
 20
4.974117
 30
0.0
 10
12.004149
 20
4.974117
 30
0.0
 10
11.250652
 20
2.627444
 30
0.0
 10
10.654040
 20
2.627444
 30
0.0
 10
10.249670
 20
4.136651
 30
0.0
 10
9.851929
 20
2.627444
 30
0.0
 10
9.248689
 20
2.627444
 30
0.0
  0
LWPOLYLINE
  5
103
100
AcDbEntity
  8
Layer_1
 62
7
100
AcDbPolyline
 90
5
 70
0
 10
12.161037
 20
2.627444
 30
0.0
 10
12.161037
 20
3.248362
 30
0.0
 10
12.781954
 20
3.248362
 30
0.0
 10
12.781954
 20
2.627444
 30
0.0
 10
12.161037
 20
2.627444
 30
0.0
  0
LWPOLYLINE
  5
104
100
AcDbEntity
  8
Layer_1
 62
7
100
AcDbPolyline
 90
14
 70
0
 10
13.411711
 20
2.627444
 30
0.0
 10
13.411711
 20
5.866824
 30
0.0
 10
14.390595
 20
5.866824
 30
0.0
 10
14.978368
 20
3.657152
 30
0.0
 10
15.559512
 20
5.866824
 30
0.0
 10
16.540606
 20
5.866824
 30
0.0
 10
16.540606
 20
2.627444
 30
0.0
 10
15.932947
 20
2.627444
 30
0.0
 10
15.932947
 20
5.177406
 30
0.0
 10
15.289932
 20
2.627444
 30
0.0
 10
14.660176
 20
2.627444
 30
0.0
 10
14.019370
 20
5.177406
 30
0.0
 10
14.019370
 20
2.627444
 30
0.0
 10
13.411711
 20
2.627444
 30
0.0
  0
LWPOLYLINE
  5
105
100
AcDbEntity
  8
Layer_1
 62
7
100
AcDbPolyline
 90
101
 70
0
 10
17.654281
 20
4.258183
 30
0.0
 10
17.513415
 20
4.283594
 30
0.0
 10
17.372548
 20
4.309005
 30
0.0
 10
17.231682
 20
4.334416
 30
0.0
 10
17.090815
 20
4.359827
 30
0.0
 10
17.146885
 20
4.518923
 30
0.0
 10
17.220080
 20
4.655922
 30
0.0
 10
17.310401
 20
4.770825
 30
0.0
 10
17.417846
 20
4.863633
 30
0.0
 10
17.547941
 20
4.935170
 30
0.0
 10
17.706208
 20
4.986268
 30
0.0
 10
17.892649
 20
5.016928
 30
0.0
 10
18.107264
 20
5.027149
 30
0.0
 10
18.301714
 20
5.020936
 30
0.0
 10
18.469648
 20
5.002291
 30
0.0
 10
18.611068
 20
4.971217
 30
0.0
 10
18.725972
 20
4.927716
 30
0.0
 10
18.820021
 20
4.875649
 30
0.0
 10
18.898878
 20
4.816679
 30
0.0
 10
18.962545
 20
4.750803
 30
0.0
 10
19.011020
 20
4.678023
 30
0.0
 10
19.047754
 20
4.587011
 30
0.0
 10
19.073994
 20
4.464236
 30
0.0
 10
19.089738
 20
4.309697
 30
0.0
 10
19.094989
 20
4.123395
 30
0.0
 10
19.093330
 20
3.942203
 30
0.0
 10
19.091671
 20
3.761009
 30
0.0
 10
19.090011
 20
3.579817
 30
0.0
 10
19.088352
 20
3.398623
 30
0.0
 10
19.090143
 20
3.254027
 30
0.0
 10
19.095527
 20
3.129595
 30
0.0
 10
19.104502
 20
3.025327
 30
0.0
 10
19.117070
 20
2.941221
 30
0.0
 10
19.135713
 20
2.866920
 30
0.0
 10
19.160709
 20
2.789858
 30
0.0
 10
19.192059
 20
2.710034
 30
0.0
 10
19.229763
 20
2.627447
 30
0.0
 10
19.076191
 20
2.627447
 30
0.0
 10
18.922618
 20
2.627447
 30
0.0
 10
18.769047
 20
2.627447
 30
0.0
 10
18.615474
 20
2.627447
 30
0.0
 10
18.602629
 20
2.662112
 30
0.0
 10
18.588405
 20
2.704234
 30
0.0
 10
18.572799
 20
2.753814
 30
0.0
 10
18.555813
 20
2.810851
 30
0.0
 10
18.548629
 20
2.836123
 30
0.0
 10
18.542548
 20
2.856701
 30
0.0
 10
18.537580
 20
2.872583
 30
0.0
 10
18.533714
 20
2.883769
 30
0.0
 10
18.452784
 20
2.811265
 30
0.0
 10
18.369092
 20
2.748427
 30
0.0
 10
18.282639
 20
2.695257
 30
0.0
 10
18.193424
 20
2.651754
 30
0.0
 10
18.101308
 20
2.617918
 30
0.0
 10
18.006153
 20
2.593750
 30
0.0
 10
17.907961
 20
2.579249
 30
0.0
 10
17.806732
 20
2.574412
 30
0.0
 10
17.635067
 20
2.586703
 30
0.0
 10
17.482462
 20
2.623578
 30
0.0
 10
17.348915
 20
2.685034
 30
0.0
 10
17.234427
 20
2.771073
 30
0.0
 10
17.143554
 20
2.875894
 30
0.0
 10
17.078644
 20
2.993697
 30
0.0
 10
17.039699
 20
3.124482
 30
0.0
 10
17.026717
 20
3.268250
 30
0.0
 10
17.032657
 20
3.364922
 30
0.0
 10
17.050472
 20
3.456071
 30
0.0
 10
17.080164
 20
3.541696
 30
0.0
 10
17.121734
 20
3.621797
 30
0.0
 10
17.173937
 20
3.695544
 30
0.0
 10
17.235532
 20
3.759900
 30
0.0
 10
17.306518
 20
3.814866
 30
0.0
 10
17.386895
 20
3.860442
 30
0.0
 10
17.482463
 20
3.901043
 30
0.0
 10
17.596813
 20
3.938884
 30
0.0
 10
17.729946
 20
3.973963
 30
0.0
 10
17.881861
 20
4.006280
 30
0.0
 10
18.082802
 20
4.046467
 30
0.0
 10
18.250323
 20
4.085275
 30
0.0
 10
18.384423
 20
4.122701
 30
0.0
 10
18.485102
 20
4.158747
 30
0.0
 10
18.485102
 20
4.174215
 30
0.0
 10
18.485102
 20
4.189683
 30
0.0
 10
18.485102
 20
4.205151
 30
0.0
 10
18.485102
 20
4.220618
 30
0.0
 10
18.479577
 20
4.303618
 30
0.0
 10
18.463005
 20
4.373636
 30
0.0
 10
18.435384
 20
4.430673
 30
0.0
 10
18.396716
 20
4.474730
 30
0.0
 10
18.342716
 20
4.508565
 30
0.0
 10
18.269107
 20
4.532733
 30
0.0
 10
18.175886
 20
4.547235
 30
0.0
 10
18.063056
 20
4.552071
 30
0.0
 10
17.984750
 20
4.547923
 30
0.0
 10
17.915559
 20
4.535493
 30
0.0
 10
17.855484
 20
4.514778
 30
0.0
 10
17.804524
 20
4.485777
 30
0.0
 10
17.760329
 20
4.447521
 30
0.0
 10
17.720556
 20
4.396837
 30
0.0
 10
17.685201
 20
4.333723
 30
0.0
 10
17.654266
 20
4.258181
 30
0.0
  0
LWPOLYLINE
  5
106
100
AcDbEntity
  8
Layer_1
 62
7
100
AcDbPolyline
 90
37
 70
0
 10
18.485103
 20
3.754376
 30
0.0
 10
18.416740
 20
3.733521
 30
0.0
 10
18.330977
 20
3.710734
 30
0.0
 10
18.227813
 20
3.686014
 30
0.0
 10
18.107249
 20
3.659360
 30
0.0
 10
17.989169
 20
3.631877
 30
0.0
 10
17.893462
 20
3.604670
 30
0.0
 10
17.820129
 20
3.577740
 30
0.0
 10
17.769169
 20
3.551086
 30
0.0
 10
17.715998
 20
3.505096
 30
0.0
 10
17.678020
 20
3.453307
 30
0.0
 10
17.655232
 20
3.395718
 30
0.0
 10
17.647633
 20
3.332329
 30
0.0
 10
17.653714
 20
3.269352
 30
0.0
 10
17.671944
 20
3.210796
 30
0.0
 10
17.702327
 20
3.156659
 30
0.0
 10
17.744864
 20
3.106942
 30
0.0
 10
17.796791
 20
3.065372
 30
0.0
 10
17.855347
 20
3.035680
 30
0.0
 10
17.920533
 20
3.017864
 30
0.0
 10
17.992347
 20
3.011924
 30
0.0
 10
18.075348
 20
3.018825
 30
0.0
 10
18.156415
 20
3.039540
 30
0.0
 10
18.235548
 20
3.074066
 30
0.0
 10
18.312750
 20
3.122403
 30
0.0
 10
18.364261
 20
3.166734
 30
0.0
 10
18.406107
 20
3.215762
 30
0.0
 10
18.438285
 20
3.269485
 30
0.0
 10
18.460798
 20
3.327903
 30
0.0
 10
18.471430
 20
3.376653
 30
0.0
 10
18.479029
 20
3.443358
 30
0.0
 10
18.483583
 20
3.528016
 30
0.0
 10
18.485101
 20
3.630628
 30
0.0
 10
18.485101
 20
3.661563
 30
0.0
 10
18.485101
 20
3.692499
 30
0.0
 10
18.485101
 20
3.723434
 30
0.0
 10
18.485101
 20
3.754370
 30
0.0
  0
LWPOLYLINE
  5
107
100
AcDbEntity
  8
Layer_1
 62
7
100
AcDbPolyline
 90
13
 70
0
 10
19.687179
 20
2.627444
 30
0.0
 10
19.687179
 20
5.866824
 30
0.0
 10
20.308098
 20
5.866824
 30
0.0
 10
20.308098
 20
4.147699
 30
0.0
 10
21.035080
 20
4.974117
 30
0.0
 10
21.799626
 20
4.974117
 30
0.0
 10
20.997515
 20
4.116764
 30
0.0
 10
21.857078
 20
2.627444
 30
0.0
 10
21.187547
 20
2.627444
 30
0.0
 10
20.597564
 20
3.681458
 30
0.0
 10
20.308098
 20
3.378733
 30
0.0
 10
20.308098
 20
2.627444
 30
0.0
 10
19.687179
 20
2.627444
 30
0.0
  0
LWPOLYLINE
  5
108
100
AcDbEntity
  8
Layer_1
 62
7
100
AcDbPolyline
 90
57
 70
0
 10
23.587251
 20
3.374314
 30
0.0
 10
23.741928
 20
3.348350
 30
0.0
 10
23.896605
 20
3.322387
 30
0.0
 10
24.051282
 20
3.296423
 30
0.0
 10
24.205959
 20
3.270460
 30
0.0
 10
24.137596
 20
3.110396
 30
0.0
 10
24.051833
 20
2.970496
 30
0.0
 10
23.948669
 20
2.850759
 30
0.0
 10
23.828105
 20
2.751186
 30
0.0
 10
23.691795
 20
2.673848
 30
0.0
 10
23.539189
 20
2.618606
 30
0.0
 10
23.370288
 20
2.585461
 30
0.0
 10
23.185090
 20
2.574412
 30
0.0
 10
22.898937
 20
2.599409
 30
0.0
 10
22.652559
 20
2.674400
 30
0.0
 10
22.445955
 20
2.799384
 30
0.0
 10
22.279125
 20
2.974363
 30
0.0
 10
22.177618
 20
3.145060
 30
0.0
 10
22.105113
 20
3.336749
 30
0.0
 10
22.061610
 20
3.549430
 30
0.0
 10
22.047109
 20
3.783104
 30
0.0
 10
22.066168
 20
4.058897
 30
0.0
 10
22.123343
 20
4.302927
 30
0.0
 10
22.218635
 20
4.515194
 30
0.0
 10
22.352044
 20
4.695697
 30
0.0
 10
22.514593
 20
4.840706
 30
0.0
 10
22.697305
 20
4.944284
 30
0.0
 10
22.900181
 20
5.006432
 30
0.0
 10
23.123219
 20
5.027149
 30
0.0
 10
23.371254
 20
5.005464
 30
0.0
 10
23.591669
 20
4.940417
 30
0.0
 10
23.784463
 20
4.832006
 30
0.0
 10
23.949637
 20
4.680230
 30
0.0
 10
24.081249
 20
4.484812
 30
0.0
 10
24.173365
 20
4.243266
 30
0.0
 10
24.225983
 20
3.955595
 30
0.0
 10
24.239104
 20
3.621797
 30
0.0
 10
23.850202
 20
3.621797
 30
0.0
 10
23.461299
 20
3.621797
 30
0.0
 10
23.072397
 20
3.621797
 30
0.0
 10
22.683495
 20
3.621797
 30
0.0
 10
22.695373
 20
3.491288
 30
0.0
 10
22.724374
 20
3.375970
 30
0.0
 10
22.770500
 20
3.275845
 30
0.0
 10
22.833752
 20
3.190911
 30
0.0
 10
22.909986
 20
3.124207
 30
0.0
 10
22.995058
 20
3.076560
 30
0.0
 10
23.088969
 20
3.047973
 30
0.0
 10
23.191720
 20
3.038444
 30
0.0
 10
23.261737
 20
3.043412
 30
0.0
 10
23.325956
 20
3.058327
 30
0.0
 10
23.384375
 20
3.083186
 30
0.0
 10
23.436993
 20
3.117989
 30
0.0
 10
23.483672
 20
3.163839
 30
0.0
 10
23.524274
 20
3.221843
 30
0.0
 10
23.558800
 20
3.292001
 30
0.0
 10
23.587251
 20
3.374311
 30
0.0
  0
LWPOLYLINE
  5
109
100
AcDbEntity
  8
Layer_1
 62
7
100
AcDbPolyline
 90
21
 70
0
 10
23.622606
 20
4.001858
 30
0.0
 10
23.611417
 20
4.128499
 30
0.0
 10
23.584488
 20
4.238844
 30
0.0
 10
23.541814
 20
4.332894
 30
0.0
 10
23.483397
 20
4.410648
 30
0.0
 10
23.413515
 20
4.472517
 30
0.0
 10
23.336452
 20
4.516710
 30
0.0
 10
23.252208
 20
4.543227
 30
0.0
 10
23.160784
 20
4.552070
 30
0.0
 10
23.063557
 20
4.542812
 30
0.0
 10
22.975171
 20
4.515053
 30
0.0
 10
22.895622
 20
4.468788
 30
0.0
 10
22.824914
 20
4.404018
 30
0.0
 10
22.767047
 20
4.323365
 30
0.0
 10
22.726031
 20
4.229453
 30
0.0
 10
22.701862
 20
4.122285
 30
0.0
 10
22.694546
 20
4.001858
 30
0.0
 10
22.926562
 20
4.001858
 30
0.0
 10
23.158578
 20
4.001858
 30
0.0
 10
23.390593
 20
4.001858
 30
0.0
 10
23.622608
 20
4.001858
 30
0.0
  0
LWPOLYLINE
  5
10a
100
AcDbEntity
  8
Layer_1
 62
7
100
AcDbPolyline
 90
53
 70
0
 10
25.341730
 20
2.627444
 30
0.0
 10
25.186501
 20
2.627444
 30
0.0
 10
25.031271
 20
2.627444
 30
0.0
 10
24.876042
 20
2.627444
 30
0.0
 10
24.720813
 20
2.627444
 30
0.0
 10
24.720813
 20
3.214113
 30
0.0
 10
24.720813
 20
3.800781
 30
0.0
 10
24.720813
 20
4.387448
 30
0.0
 10
24.720813
 20
4.974117
 30
0.0
 10
24.864993
 20
4.974117
 30
0.0
 10
25.009175
 20
4.974117
 30
0.0
 10
25.153355
 20
4.974117
 30
0.0
 10
25.297537
 20
4.974117
 30
0.0
 10
25.297537
 20
4.890701
 30
0.0
 10
25.297537
 20
4.807286
 30
0.0
 10
25.297537
 20
4.723871
 30
0.0
 10
25.297537
 20
4.640456
 30
0.0
 10
25.369627
 20
4.748591
 30
0.0
 10
25.437851
 20
4.836563
 30
0.0
 10
25.502208
 20
4.904372
 30
0.0
 10
25.562697
 20
4.952019
 30
0.0
 10
25.624291
 20
4.984887
 30
0.0
 10
25.689753
 20
5.008364
 30
0.0
 10
25.759081
 20
5.022452
 30
0.0
 10
25.832278
 20
5.027147
 30
0.0
 10
25.937374
 20
5.019821
 30
0.0
 10
26.040538
 20
4.997862
 30
0.0
 10
26.141768
 20
4.961264
 30
0.0
 10
26.241067
 20
4.910029
 30
0.0
 10
26.193006
 20
4.774687
 30
0.0
 10
26.144946
 20
4.639345
 30
0.0
 10
26.096886
 20
4.504002
 30
0.0
 10
26.048825
 20
4.368659
 30
0.0
 10
25.971762
 20
4.413128
 30
0.0
 10
25.897461
 20
4.444892
 30
0.0
 10
25.825923
 20
4.463951
 30
0.0
 10
25.757148
 20
4.470306
 30
0.0
 10
25.694449
 20
4.465752
 30
0.0
 10
25.636721
 20
4.452080
 30
0.0
 10
25.583965
 20
4.429292
 30
0.0
 10
25.536181
 20
4.397391
 30
0.0
 10
25.493230
 20
4.354715
 30
0.0
 10
25.454976
 20
4.297402
 30
0.0
 10
25.421417
 20
4.225450
 30
0.0
 10
25.392553
 20
4.138859
 30
0.0
 10
25.370317
 20
4.019260
 30
0.0
 10
25.354435
 20
3.848286
 30
0.0
 10
25.344906
 20
3.625939
 30
0.0
 10
25.341729
 20
3.352216
 30
0.0
 10
25.341729
 20
3.171022
 30
0.0
 10
25.341729
 20
2.989830
 30
0.0
 10
25.341729
 20
2.808636
 30
0.0
 10
25.341729
 20
2.627443
 30
0.0
  0
LWPOLYLINE
  5
10b
100
AcDbEntity
  8
Layer_1
 62
7
100
AcDbPolyline
 90
105
 70
0
 10
26.287470
 20
3.296976
 30
0.0
 10
26.443251
 20
3.320729
 30
0.0
 10
26.599034
 20
3.344483
 30
0.0
 10
26.754815
 20
3.368238
 30
0.0
 10
26.910598
 20
3.391991
 30
0.0
 10
26.935594
 20
3.306781
 30
0.0
 10
26.970810
 20
3.232342
 30
0.0
 10
27.016247
 20
3.168676
 30
0.0
 10
27.071904
 20
3.115782
 30
0.0
 10
27.138746
 20
3.075180
 30
0.0
 10
27.217741
 20
3.046178
 30
0.0
 10
27.308890
 20
3.028776
 30
0.0
 10
27.412193
 20
3.022978
 30
0.0
 10
27.525161
 20
3.028503
 30
0.0
 10
27.623216
 20
3.045075
 30
0.0
 10
27.706355
 20
3.072696
 30
0.0
 10
27.774579
 20
3.111366
 30
0.0
 10
27.810348
 20
3.144925
 30
0.0
 10
27.835897
 20
3.183732
 30
0.0
 10
27.851226
 20
3.227788
 30
0.0
 10
27.856336
 20
3.277091
 30
0.0
 10
27.853574
 20
3.310926
 30
0.0
 10
27.845287
 20
3.341724
 30
0.0
 10
27.831477
 20
3.369482
 30
0.0
 10
27.812143
 20
3.394204
 30
0.0
 10
27.781760
 20
3.415886
 30
0.0
 10
27.737013
 20
3.436739
 30
0.0
 10
27.677904
 20
3.456764
 30
0.0
 10
27.604433
 20
3.475961
 30
0.0
 10
27.263177
 20
3.557028
 30
0.0
 10
26.990696
 20
3.634505
 30
0.0
 10
26.786993
 20
3.708391
 30
0.0
 10
26.652065
 20
3.778687
 30
0.0
 10
26.530257
 20
3.882955
 30
0.0
 10
26.443250
 20
4.005729
 30
0.0
 10
26.391048
 20
4.147011
 30
0.0
 10
26.373647
 20
4.306798
 30
0.0
 10
26.388700
 20
4.453187
 30
0.0
 10
26.433860
 20
4.587425
 30
0.0
 10
26.509127
 20
4.709509
 30
0.0
 10
26.614500
 20
4.819442
 30
0.0
 10
26.751499
 20
4.910314
 30
0.0
 10
26.921644
 20
4.975222
 30
0.0
 10
27.124934
 20
5.014168
 30
0.0
 10
27.361370
 20
5.027152
 30
0.0
 10
27.586755
 20
5.017345
 30
0.0
 10
27.781206
 20
4.987928
 30
0.0
 10
27.944722
 20
4.938901
 30
0.0
 10
28.077304
 20
4.870265
 30
0.0
 10
28.185301
 20
4.782429
 30
0.0
 10
28.275068
 20
4.675812
 30
0.0
 10
28.346606
 20
4.550413
 30
0.0
 10
28.399915
 20
4.406233
 30
0.0
 10
28.253525
 20
4.379165
 30
0.0
 10
28.107134
 20
4.352096
 30
0.0
 10
27.960743
 20
4.325028
 30
0.0
 10
27.814353
 20
4.297959
 30
0.0
 10
27.791288
 20
4.362453
 30
0.0
 10
27.759661
 20
4.418938
 30
0.0
 10
27.719474
 20
4.467413
 30
0.0
 10
27.670724
 20
4.507879
 30
0.0
 10
27.613133
 20
4.539779
 30
0.0
 10
27.544219
 20
4.562567
 30
0.0
 10
27.463981
 20
4.576239
 30
0.0
 10
27.372418
 20
4.580793
 30
0.0
 10
27.258481
 20
4.576512
 30
0.0
 10
27.161945
 20
4.563668
 30
0.0
 10
27.082812
 20
4.542263
 30
0.0
 10
27.021080
 20
4.512295
 30
0.0
 10
26.990144
 20
4.486192
 30
0.0
 10
26.968048
 20
4.456499
 30
0.0
 10
26.954789
 20
4.423216
 30
0.0
 10
26.950368
 20
4.386343
 30
0.0
 10
26.954233
 20
4.354440
 30
0.0
 10
26.965833
 20
4.325024
 30
0.0
 10
26.985168
 20
4.298094
 30
0.0
 10
27.012236
 20
4.273650
 30
0.0
 10
27.079907
 20
4.239537
 30
0.0
 10
27.198953
 20
4.199073
 30
0.0
 10
27.369374
 20
4.152256
 30
0.0
 10
27.591171
 20
4.099086
 30
0.0
 10
27.820976
 20
4.039562
 30
0.0
 10
28.013217
 20
3.973686
 30
0.0
 10
28.167894
 20
3.901458
 30
0.0
 10
28.285008
 20
3.822877
 30
0.0
 10
28.370079
 20
3.731866
 30
0.0
 10
28.430845
 20
3.624558
 30
0.0
 10
28.467304
 20
3.500955
 30
0.0
 10
28.479459
 20
3.361055
 30
0.0
 10
28.462609
 20
3.205412
 30
0.0
 10
28.412062
 20
3.061093
 30
0.0
 10
28.327819
 20
2.928097
 30
0.0
 10
28.209879
 20
2.806428
 30
0.0
 10
28.058930
 20
2.704920
 30
0.0
 10
27.875666
 20
2.632416
 30
0.0
 10
27.660084
 20
2.588913
 30
0.0
 10
27.412187
 20
2.574412
 30
0.0
 10
27.184867
 20
2.586566
 30
0.0
 10
26.982406
 20
2.623025
 30
0.0
 10
26.804803
 20
2.683791
 30
0.0
 10
26.652060
 20
2.768863
 30
0.0
 10
26.524866
 20
2.874790
 30
0.0
 10
26.421702
 20
2.998117
 30
0.0
 10
26.342568
 20
3.138846
 30
0.0
 10
26.287464
 20
3.296976
 30
0.0
  0
LWPOLYLINE
  5
10c
100
AcDbEntity
  8
Layer_1
 62
7
100
AcDbPolyline
 90
9
 70
0
 10
29.758865
 20
2.627444
 30
0.0
 10
29.758865
 20
5.318825
 30
0.0
 10
28.797657
 20
5.318825
 30
0.0
 10
28.797657
 20
5.866824
 30
0.0
 10
31.371925
 20
5.866824
 30
0.0
 10
31.371925
 20
5.318825
 30
0.0
 10
30.412928
 20
5.318825
 30
0.0
 10
30.412928
 20
2.627444
 30
0.0
 10
29.758865
 20
2.627444
 30
0.0
  0
LWPOLYLINE
  5
10d
100
AcDbEntity
  8
Layer_1
 62
7
100
AcDbPolyline
 90
41
 70
0
 10
31.312264
 20
3.833926
 30
0.0
 10
31.321793
 20
3.987359
 30
0.0
 10
31.350382
 20
4.138307
 30
0.0
 10
31.398028
 20
4.286769
 30
0.0
 10
31.464732
 20
4.432747
 30
0.0
 10
31.548837
 20
4.568916
 30
0.0
 10
31.648686
 20
4.687962
 30
0.0
 10
31.764280
 20
4.789883
 30
0.0
 10
31.895618
 20
4.874681
 30
0.0
 10
32.039936
 20
4.941385
 30
0.0
 10
32.192265
 20
4.989030
 30
0.0
 10
32.352605
 20
5.017618
 30
0.0
 10
32.520955
 20
5.027149
 30
0.0
 10
32.775205
 20
5.005464
 30
0.0
 10
33.005424
 20
4.940417
 30
0.0
 10
33.211614
 20
4.832006
 30
0.0
 10
33.393775
 20
4.680230
 30
0.0
 10
33.542651
 20
4.496412
 30
0.0
 10
33.648991
 20
4.289669
 30
0.0
 10
33.712796
 20
4.060002
 30
0.0
 10
33.734065
 20
3.807410
 30
0.0
 10
33.712519
 20
3.552468
 30
0.0
 10
33.647886
 20
3.320176
 30
0.0
 10
33.540164
 20
3.110534
 30
0.0
 10
33.389356
 20
2.923541
 30
0.0
 10
33.206919
 20
2.770797
 30
0.0
 10
33.002109
 20
2.661694
 30
0.0
 10
32.774928
 20
2.596233
 30
0.0
 10
32.525375
 20
2.574412
 30
0.0
 10
32.365863
 20
2.583529
 30
0.0
 10
32.209942
 20
2.610874
 30
0.0
 10
32.057613
 20
2.656448
 30
0.0
 10
31.908875
 20
2.720253
 30
0.0
 10
31.771738
 20
2.801596
 30
0.0
 10
31.652001
 20
2.899789
 30
0.0
 10
31.549666
 20
3.014830
 30
0.0
 10
31.464732
 20
3.146720
 30
0.0
 10
31.398028
 20
3.295734
 30
0.0
 10
31.350382
 20
3.459939
 30
0.0
 10
31.321793
 20
3.639338
 30
0.0
 10
31.312264
 20
3.833928
 30
0.0
  0
LWPOLYLINE
  5
10e
100
AcDbEntity
  8
Layer_1
 62
7
100
AcDbPolyline
 90
33
 70
0
 10
31.948650
 20
3.800783
 30
0.0
 10
31.959008
 20
3.636438
 30
0.0
 10
31.990081
 20
3.492533
 30
0.0
 10
32.041870
 20
3.369067
 30
0.0
 10
32.114375
 20
3.266042
 30
0.0
 10
32.202071
 20
3.184836
 30
0.0
 10
32.299434
 20
3.126832
 30
0.0
 10
32.406466
 20
3.092030
 30
0.0
 10
32.523165
 20
3.080429
 30
0.0
 10
32.639724
 20
3.092030
 30
0.0
 10
32.746340
 20
3.126832
 30
0.0
 10
32.843014
 20
3.184836
 30
0.0
 10
32.929744
 20
3.266042
 30
0.0
 10
33.002248
 20
3.369344
 30
0.0
 10
33.054037
 20
3.493637
 30
0.0
 10
33.085111
 20
3.638923
 30
0.0
 10
33.095470
 20
3.805202
 30
0.0
 10
33.085111
 20
3.967612
 30
0.0
 10
33.054037
 20
4.110135
 30
0.0
 10
33.002248
 20
4.232773
 30
0.0
 10
32.929744
 20
4.335523
 30
0.0
 10
32.843014
 20
4.416728
 30
0.0
 10
32.746340
 20
4.474731
 30
0.0
 10
32.639724
 20
4.509533
 30
0.0
 10
32.523165
 20
4.521135
 30
0.0
 10
32.406466
 20
4.509533
 30
0.0
 10
32.299434
 20
4.474731
 30
0.0
 10
32.202071
 20
4.416728
 30
0.0
 10
32.114375
 20
4.335523
 30
0.0
 10
32.041870
 20
4.232496
 30
0.0
 10
31.990080
 20
4.109031
 30
0.0
 10
31.959008
 20
3.965126
 30
0.0
 10
31.948650
 20
3.800783
 30
0.0
  0
LWPOLYLINE
  5
10f
100
AcDbEntity
  8
Layer_1
 62
7
100
AcDbPolyline
 90
41
 70
0
 10
34.078774
 20
3.833926
 30
0.0
 10
34.088303
 20
3.987359
 30
0.0
 10
34.116891
 20
4.138307
 30
0.0
 10
34.164537
 20
4.286769
 30
0.0
 10
34.231241
 20
4.432747
 30
0.0
 10
34.315346
 20
4.568916
 30
0.0
 10
34.415196
 20
4.687962
 30
0.0
 10
34.530790
 20
4.789883
 30
0.0
 10
34.662127
 20
4.874681
 30
0.0
 10
34.806445
 20
4.941385
 30
0.0
 10
34.958774
 20
4.989030
 30
0.0
 10
35.119114
 20
5.017618
 30
0.0
 10
35.287464
 20
5.027149
 30
0.0
 10
35.541714
 20
5.005464
 30
0.0
 10
35.771934
 20
4.940417
 30
0.0
 10
35.978124
 20
4.832006
 30
0.0
 10
36.160284
 20
4.680230
 30
0.0
 10
36.309160
 20
4.496412
 30
0.0
 10
36.415501
 20
4.289669
 30
0.0
 10
36.479305
 20
4.060002
 30
0.0
 10
36.500574
 20
3.807410
 30
0.0
 10
36.479029
 20
3.552468
 30
0.0
 10
36.414396
 20
3.320176
 30
0.0
 10
36.306674
 20
3.110534
 30
0.0
 10
36.155866
 20
2.923541
 30
0.0
 10
35.973428
 20
2.770797
 30
0.0
 10
35.768619
 20
2.661694
 30
0.0
 10
35.541438
 20
2.596233
 30
0.0
 10
35.291884
 20
2.574412
 30
0.0
 10
35.132373
 20
2.583529
 30
0.0
 10
34.976452
 20
2.610874
 30
0.0
 10
34.824123
 20
2.656448
 30
0.0
 10
34.675385
 20
2.720253
 30
0.0
 10
34.538247
 20
2.801596
 30
0.0
 10
34.418510
 20
2.899789
 30
0.0
 10
34.316176
 20
3.014830
 30
0.0
 10
34.231241
 20
3.146720
 30
0.0
 10
34.164537
 20
3.295734
 30
0.0
 10
34.116891
 20
3.459939
 30
0.0
 10
34.088303
 20
3.639338
 30
0.0
 10
34.078774
 20
3.833928
 30
0.0
  0
LWPOLYLINE
  5
110
100
AcDbEntity
  8
Layer_1
 62
7
100
AcDbPolyline
 90
33
 70
0
 10
34.715159
 20
3.800783
 30
0.0
 10
34.725517
 20
3.636438
 30
0.0
 10
34.756590
 20
3.492533
 30
0.0
 10
34.808379
 20
3.369067
 30
0.0
 10
34.880885
 20
3.266042
 30
0.0
 10
34.968580
 20
3.184836
 30
0.0
 10
35.065944
 20
3.126832
 30
0.0
 10
35.172975
 20
3.092030
 30
0.0
 10
35.289674
 20
3.080429
 30
0.0
 10
35.406234
 20
3.092030
 30
0.0
 10
35.512849
 20
3.126832
 30
0.0
 10
35.609523
 20
3.184836
 30
0.0
 10
35.696254
 20
3.266042
 30
0.0
 10
35.768757
 20
3.369344
 30
0.0
 10
35.820546
 20
3.493637
 30
0.0
 10
35.851621
 20
3.638923
 30
0.0
 10
35.861979
 20
3.805202
 30
0.0
 10
35.851621
 20
3.967612
 30
0.0
 10
35.820546
 20
4.110135
 30
0.0
 10
35.768757
 20
4.232773
 30
0.0
 10
35.696254
 20
4.335523
 30
0.0
 10
35.609523
 20
4.416728
 30
0.0
 10
35.512849
 20
4.474731
 30
0.0
 10
35.406234
 20
4.509533
 30
0.0
 10
35.289674
 20
4.521135
 30
0.0
 10
35.172975
 20
4.509533
 30
0.0
 10
35.065944
 20
4.474731
 30
0.0
 10
34.968580
 20
4.416728
 30
0.0
 10
34.880885
 20
4.335523
 30
0.0
 10
34.808379
 20
4.232496
 30
0.0
 10
34.756590
 20
4.109031
 30
0.0
 10
34.725517
 20
3.965126
 30
0.0
 10
34.715159
 20
3.800783
 30
0.0
  0
LWPOLYLINE
  5
111
100
AcDbEntity
  8
Layer_1
 62
7
100
AcDbPolyline
 90
5
 70
0
 10
36.988912
 20
2.627444
 30
0.0
 10
36.988912
 20
5.866824
 30
0.0
 10
37.609829
 20
5.866824
 30
0.0
 10
37.609829
 20
2.627444
 30
0.0
 10
36.988912
 20
2.627444
 30
0.0
  0
LWPOLYLINE
  5
112
100
AcDbEntity
  8
Layer_1
 62
7
100
AcDbPolyline
 90
14
 70
0
 10
38.708037
 20
2.627444
 30
0.0
 10
37.934652
 20
5.866824
 30
0.0
 10
38.604182
 20
5.866824
 30
0.0
 10
39.092520
 20
3.641685
 30
0.0
 10
39.684712
 20
5.866824
 30
0.0
 10
40.462517
 20
5.866824
 30
0.0
 10
41.030402
 20
3.604120
 30
0.0
 10
41.527578
 20
5.866824
 30
0.0
 10
42.186061
 20
5.866824
 30
0.0
 10
41.399418
 20
2.627444
 30
0.0
 10
40.705580
 20
2.627444
 30
0.0
 10
40.060356
 20
5.049245
 30
0.0
 10
39.417342
 20
2.627444
 30
0.0
 10
38.708037
 20
2.627444
 30
0.0
  0
LWPOLYLINE
  5
113
100
AcDbEntity
  8
Layer_1
 62
7
100
AcDbPolyline
 90
41
 70
0
 10
42.289915
 20
3.833926
 30
0.0
 10
42.299444
 20
3.987359
 30
0.0
 10
42.328032
 20
4.138307
 30
0.0
 10
42.375678
 20
4.286769
 30
0.0
 10
42.442383
 20
4.432747
 30
0.0
 10
42.526488
 20
4.568916
 30
0.0
 10
42.626337
 20
4.687962
 30
0.0
 10
42.741931
 20
4.789883
 30
0.0
 10
42.873269
 20
4.874681
 30
0.0
 10
43.017587
 20
4.941385
 30
0.0
 10
43.169916
 20
4.989030
 30
0.0
 10
43.330256
 20
5.017618
 30
0.0
 10
43.498606
 20
5.027149
 30
0.0
 10
43.752855
 20
5.005464
 30
0.0
 10
43.983075
 20
4.940417
 30
0.0
 10
44.189265
 20
4.832006
 30
0.0
 10
44.371426
 20
4.680230
 30
0.0
 10
44.520301
 20
4.496412
 30
0.0
 10
44.626641
 20
4.289669
 30
0.0
 10
44.690446
 20
4.060002
 30
0.0
 10
44.711716
 20
3.807410
 30
0.0
 10
44.690170
 20
3.552468
 30
0.0
 10
44.625536
 20
3.320176
 30
0.0
 10
44.517815
 20
3.110534
 30
0.0
 10
44.367007
 20
2.923541
 30
0.0
 10
44.184570
 20
2.770797
 30
0.0
 10
43.979760
 20
2.661694
 30
0.0
 10
43.752579
 20
2.596233
 30
0.0
 10
43.503026
 20
2.574412
 30
0.0
 10
43.343514
 20
2.583529
 30
0.0
 10
43.187593
 20
2.610874
 30
0.0
 10
43.035264
 20
2.656448
 30
0.0
 10
42.886526
 20
2.720253
 30
0.0
 10
42.749388
 20
2.801596
 30
0.0
 10
42.629652
 20
2.899789
 30
0.0
 10
42.527317
 20
3.014830
 30
0.0
 10
42.442383
 20
3.146720
 30
0.0
 10
42.375678
 20
3.295734
 30
0.0
 10
42.328032
 20
3.459939
 30
0.0
 10
42.299444
 20
3.639338
 30
0.0
 10
42.289915
 20
3.833928
 30
0.0
  0
LWPOLYLINE
  5
114
100
AcDbEntity
  8
Layer_1
 62
7
100
AcDbPolyline
 90
33
 70
0
 10
42.926301
 20
3.800783
 30
0.0
 10
42.936658
 20
3.636438
 30
0.0
 10
42.967732
 20
3.492533
 30
0.0
 10
43.019520
 20
3.369067
 30
0.0
 10
43.092026
 20
3.266042
 30
0.0
 10
43.179722
 20
3.184836
 30
0.0
 10
43.277085
 20
3.126832
 30
0.0
 10
43.384117
 20
3.092030
 30
0.0
 10
43.500816
 20
3.080429
 30
0.0
 10
43.617375
 20
3.092030
 30
0.0
 10
43.723991
 20
3.126832
 30
0.0
 10
43.820665
 20
3.184836
 30
0.0
 10
43.907395
 20
3.266042
 30
0.0
 10
43.979899
 20
3.369344
 30
0.0
 10
44.031687
 20
3.493637
 30
0.0
 10
44.062762
 20
3.638923
 30
0.0
 10
44.073120
 20
3.805202
 30
0.0
 10
44.062762
 20
3.967612
 30
0.0
 10
44.031687
 20
4.110135
 30
0.0
 10
43.979899
 20
4.232773
 30
0.0
 10
43.907395
 20
4.335523
 30
0.0
 10
43.820665
 20
4.416728
 30
0.0
 10
43.723991
 20
4.474731
 30
0.0
 10
43.617375
 20
4.509533
 30
0.0
 10
43.500816
 20
4.521135
 30
0.0
 10
43.384117
 20
4.509533
 30
0.0
 10
43.277085
 20
4.474731
 30
0.0
 10
43.179722
 20
4.416728
 30
0.0
 10
43.092026
 20
4.335523
 30
0.0
 10
43.019520
 20
4.232496
 30
0.0
 10
42.967731
 20
4.109031
 30
0.0
 10
42.936658
 20
3.965126
 30
0.0
 10
42.926301
 20
3.800783
 30
0.0
  0
LWPOLYLINE
  5
115
100
AcDbEntity
  8
Layer_1
 62
7
100
AcDbPolyline
 90
53
 70
0
 10
45.794455
 20
2.627444
 30
0.0
 10
45.639226
 20
2.627444
 30
0.0
 10
45.483997
 20
2.627444
 30
0.0
 10
45.328767
 20
2.627444
 30
0.0
 10
45.173538
 20
2.627444
 30
0.0
 10
45.173538
 20
3.214113
 30
0.0
 10
45.173538
 20
3.800781
 30
0.0
 10
45.173538
 20
4.387448
 30
0.0
 10
45.173538
 20
4.974117
 30
0.0
 10
45.317719
 20
4.974117
 30
0.0
 10
45.461899
 20
4.974117
 30
0.0
 10
45.606080
 20
4.974117
 30
0.0
 10
45.750261
 20
4.974117
 30
0.0
 10
45.750261
 20
4.890701
 30
0.0
 10
45.750261
 20
4.807286
 30
0.0
 10
45.750261
 20
4.723871
 30
0.0
 10
45.750261
 20
4.640456
 30
0.0
 10
45.822352
 20
4.748591
 30
0.0
 10
45.890575
 20
4.836563
 30
0.0
 10
45.954932
 20
4.904372
 30
0.0
 10
46.015422
 20
4.952019
 30
0.0
 10
46.077016
 20
4.984887
 30
0.0
 10
46.142477
 20
5.008364
 30
0.0
 10
46.211806
 20
5.022452
 30
0.0
 10
46.285002
 20
5.027147
 30
0.0
 10
46.390098
 20
5.019821
 30
0.0
 10
46.493263
 20
4.997862
 30
0.0
 10
46.594493
 20
4.961264
 30
0.0
 10
46.693792
 20
4.910029
 30
0.0
 10
46.645731
 20
4.774687
 30
0.0
 10
46.597671
 20
4.639345
 30
0.0
 10
46.549611
 20
4.504002
 30
0.0
 10
46.501550
 20
4.368659
 30
0.0
 10
46.424487
 20
4.413128
 30
0.0
 10
46.350186
 20
4.444892
 30
0.0
 10
46.278648
 20
4.463951
 30
0.0
 10
46.209873
 20
4.470306
 30
0.0
 10
46.147174
 20
4.465752
 30
0.0
 10
46.089445
 20
4.452080
 30
0.0
 10
46.036689
 20
4.429292
 30
0.0
 10
45.988906
 20
4.397391
 30
0.0
 10
45.945955
 20
4.354715
 30
0.0
 10
45.907700
 20
4.297402
 30
0.0
 10
45.874142
 20
4.225450
 30
0.0
 10
45.845278
 20
4.138859
 30
0.0
 10
45.823042
 20
4.019260
 30
0.0
 10
45.807160
 20
3.848286
 30
0.0
 10
45.797631
 20
3.625939
 30
0.0
 10
45.794454
 20
3.352216
 30
0.0
 10
45.794454
 20
3.171022
 30
0.0
 10
45.794454
 20
2.989830
 30
0.0
 10
45.794454
 20
2.808636
 30
0.0
 10
45.794454
 20
2.627443
 30
0.0
  0
LWPOLYLINE
  5
116
100
AcDbEntity
  8
Layer_1
 62
7
100
AcDbPolyline
 90
13
 70
0
 10
46.936855
 20
2.627444
 30
0.0
 10
46.936855
 20
5.866824
 30
0.0
 10
47.557774
 20
5.866824
 30
0.0
 10
47.557774
 20
4.147699
 30
0.0
 10
48.284756
 20
4.974117
 30
0.0
 10
49.049302
 20
4.974117
 30
0.0
 10
48.247191
 20
4.116764
 30
0.0
 10
49.106754
 20
2.627444
 30
0.0
 10
48.437223
 20
2.627444
 30
0.0
 10
47.847240
 20
3.681458
 30
0.0
 10
47.557774
 20
3.378733
 30
0.0
 10
47.557774
 20
2.627444
 30
0.0
 10
46.936855
 20
2.627444
 30
0.0
  0
LWPOLYLINE
  5
117
100
AcDbEntity
  8
Layer_1
 62
7
100
AcDbPolyline
 90
105
 70
0
 10
49.259221
 20
3.296976
 30
0.0
 10
49.415002
 20
3.320729
 30
0.0
 10
49.570785
 20
3.344483
 30
0.0
 10
49.726566
 20
3.368238
 30
0.0
 10
49.882349
 20
3.391991
 30
0.0
 10
49.907345
 20
3.306781
 30
0.0
 10
49.942561
 20
3.232342
 30
0.0
 10
49.987998
 20
3.168676
 30
0.0
 10
50.043655
 20
3.115782
 30
0.0
 10
50.110497
 20
3.075180
 30
0.0
 10
50.189492
 20
3.046178
 30
0.0
 10
50.280641
 20
3.028776
 30
0.0
 10
50.383944
 20
3.022978
 30
0.0
 10
50.496912
 20
3.028503
 30
0.0
 10
50.594966
 20
3.045075
 30
0.0
 10
50.678106
 20
3.072696
 30
0.0
 10
50.746330
 20
3.111366
 30
0.0
 10
50.782099
 20
3.144925
 30
0.0
 10
50.807647
 20
3.183732
 30
0.0
 10
50.822977
 20
3.227788
 30
0.0
 10
50.828087
 20
3.277091
 30
0.0
 10
50.825325
 20
3.310926
 30
0.0
 10
50.817038
 20
3.341724
 30
0.0
 10
50.803228
 20
3.369482
 30
0.0
 10
50.783894
 20
3.394204
 30
0.0
 10
50.753510
 20
3.415886
 30
0.0
 10
50.708764
 20
3.436739
 30
0.0
 10
50.649655
 20
3.456764
 30
0.0
 10
50.576184
 20
3.475961
 30
0.0
 10
50.234928
 20
3.557028
 30
0.0
 10
49.962447
 20
3.634505
 30
0.0
 10
49.758744
 20
3.708391
 30
0.0
 10
49.623816
 20
3.778687
 30
0.0
 10
49.502008
 20
3.882955
 30
0.0
 10
49.415002
 20
4.005729
 30
0.0
 10
49.362799
 20
4.147011
 30
0.0
 10
49.345398
 20
4.306798
 30
0.0
 10
49.360451
 20
4.453187
 30
0.0
 10
49.405611
 20
4.587425
 30
0.0
 10
49.480878
 20
4.709509
 30
0.0
 10
49.586251
 20
4.819442
 30
0.0
 10
49.723250
 20
4.910314
 30
0.0
 10
49.893395
 20
4.975222
 30
0.0
 10
50.096685
 20
5.014168
 30
0.0
 10
50.333121
 20
5.027152
 30
0.0
 10
50.558506
 20
5.017345
 30
0.0
 10
50.752957
 20
4.987928
 30
0.0
 10
50.916473
 20
4.938901
 30
0.0
 10
51.049054
 20
4.870265
 30
0.0
 10
51.157051
 20
4.782429
 30
0.0
 10
51.246819
 20
4.675812
 30
0.0
 10
51.318357
 20
4.550413
 30
0.0
 10
51.371666
 20
4.406233
 30
0.0
 10
51.225276
 20
4.379165
 30
0.0
 10
51.078885
 20
4.352096
 30
0.0
 10
50.932494
 20
4.325028
 30
0.0
 10
50.786104
 20
4.297959
 30
0.0
 10
50.763039
 20
4.362453
 30
0.0
 10
50.731412
 20
4.418938
 30
0.0
 10
50.691225
 20
4.467413
 30
0.0
 10
50.642475
 20
4.507879
 30
0.0
 10
50.584884
 20
4.539779
 30
0.0
 10
50.515970
 20
4.562567
 30
0.0
 10
50.435732
 20
4.576239
 30
0.0
 10
50.344169
 20
4.580793
 30
0.0
 10
50.230233
 20
4.576512
 30
0.0
 10
50.133697
 20
4.563668
 30
0.0
 10
50.054563
 20
4.542263
 30
0.0
 10
49.992831
 20
4.512295
 30
0.0
 10
49.961896
 20
4.486192
 30
0.0
 10
49.939799
 20
4.456499
 30
0.0
 10
49.926541
 20
4.423216
 30
0.0
 10
49.922119
 20
4.386343
 30
0.0
 10
49.925985
 20
4.354440
 30
0.0
 10
49.937585
 20
4.325024
 30
0.0
 10
49.956920
 20
4.298094
 30
0.0
 10
49.983988
 20
4.273650
 30
0.0
 10
50.051659
 20
4.239537
 30
0.0
 10
50.170705
 20
4.199073
 30
0.0
 10
50.341126
 20
4.152256
 30
0.0
 10
50.562923
 20
4.099086
 30
0.0
 10
50.792728
 20
4.039562
 30
0.0
 10
50.984969
 20
3.973686
 30
0.0
 10
51.139646
 20
3.901458
 30
0.0
 10
51.256759
 20
3.822877
 30
0.0
 10
51.341830
 20
3.731866
 30
0.0
 10
51.402596
 20
3.624558
 30
0.0
 10
51.439056
 20
3.500955
 30
0.0
 10
51.451211
 20
3.361055
 30
0.0
 10
51.434361
 20
3.205412
 30
0.0
 10
51.383814
 20
3.061093
 30
0.0
 10
51.299571
 20
2.928097
 30
0.0
 10
51.181631
 20
2.806428
 30
0.0
 10
51.030682
 20
2.704920
 30
0.0
 10
50.847417
 20
2.632416
 30
0.0
 10
50.631836
 20
2.588913
 30
0.0
 10
50.383939
 20
2.574412
 30
0.0
 10
50.156618
 20
2.586566
 30
0.0
 10
49.954157
 20
2.623025
 30
0.0
 10
49.776555
 20
2.683791
 30
0.0
 10
49.623812
 20
2.768863
 30
0.0
 10
49.496618
 20
2.874790
 30
0.0
 10
49.393454
 20
2.998117
 30
0.0
 10
49.314320
 20
3.138846
 30
0.0
 10
49.259216
 20
3.296976
 30
0.0
  0
LWPOLYLINE
  5
118
100
AcDbEntity
  8
Layer_1
 62
7
100
AcDbPolyline
 90
5
 70
0
 10
51.997005
 20
2.627444
 30
0.0
 10
51.997005
 20
3.248362
 30
0.0
 10
52.617922
 20
3.248362
 30
0.0
 10
52.617922
 20
2.627444
 30
0.0
 10
51.997005
 20
2.627444
 30
0.0
  0
LWPOLYLINE
  5
119
100
AcDbEntity
  8
Layer_1
 62
7
100
AcDbPolyline
 90
73
 70
0
 10
55.298255
 20
4.280279
 30
0.0
 10
55.145234
 20
4.252658
 30
0.0
 10
54.992214
 20
4.225038
 30
0.0
 10
54.839195
 20
4.197417
 30
0.0
 10
54.686175
 20
4.169796
 30
0.0
 10
54.665735
 20
4.255834
 30
0.0
 10
54.635352
 20
4.330549
 30
0.0
 10
54.595026
 20
4.393938
 30
0.0
 10
54.544756
 20
4.446005
 30
0.0
 10
54.486475
 20
4.486607
 30
0.0
 10
54.419909
 20
4.515608
 30
0.0
 10
54.345056
 20
4.533010
 30
0.0
 10
54.261918
 20
4.538808
 30
0.0
 10
54.151710
 20
4.528726
 30
0.0
 10
54.053104
 20
4.498480
 30
0.0
 10
53.966098
 20
4.448073
 30
0.0
 10
53.890693
 20
4.377502
 30
0.0
 10
53.830755
 20
4.284419
 30
0.0
 10
53.787943
 20
4.164267
 30
0.0
 10
53.762256
 20
4.017048
 30
0.0
 10
53.753695
 20
3.842762
 30
0.0
 10
53.762397
 20
3.649277
 30
0.0
 10
53.788498
 20
3.486452
 30
0.0
 10
53.832001
 20
3.354285
 30
0.0
 10
53.892905
 20
3.252779
 30
0.0
 10
53.969552
 20
3.177374
 30
0.0
 10
54.058078
 20
3.123513
 30
0.0
 10
54.158480
 20
3.091197
 30
0.0
 10
54.270759
 20
3.080425
 30
0.0
 10
54.355140
 20
3.086638
 30
0.0
 10
54.431512
 20
3.105281
 30
0.0
 10
54.499874
 20
3.136355
 30
0.0
 10
54.560226
 20
3.179858
 30
0.0
 10
54.612429
 20
3.239657
 30
0.0
 10
54.656345
 20
3.317410
 30
0.0
 10
54.691977
 20
3.413117
 30
0.0
 10
54.719323
 20
3.526777
 30
0.0
 10
54.871790
 20
3.500813
 30
0.0
 10
55.024257
 20
3.474849
 30
0.0
 10
55.176725
 20
3.448885
 30
0.0
 10
55.329192
 20
3.422922
 30
0.0
 10
55.270773
 20
3.225847
 30
0.0
 10
55.190534
 20
3.054459
 30
0.0
 10
55.088475
 20
2.908759
 30
0.0
 10
54.964596
 20
2.788746
 30
0.0
 10
54.818343
 20
2.694972
 30
0.0
 10
54.649165
 20
2.627992
 30
0.0
 10
54.457061
 20
2.587804
 30
0.0
 10
54.242034
 20
2.574408
 30
0.0
 10
53.997588
 20
2.594709
 30
0.0
 10
53.779106
 20
2.655613
 30
0.0
 10
53.586589
 20
2.757120
 30
0.0
 10
53.420036
 20
2.899230
 30
0.0
 10
53.286627
 20
3.077246
 30
0.0
 10
53.191334
 20
3.286475
 30
0.0
 10
53.134159
 20
3.526915
 30
0.0
 10
53.115100
 20
3.798566
 30
0.0
 10
53.134297
 20
4.072980
 30
0.0
 10
53.191886
 20
4.315076
 30
0.0
 10
53.287869
 20
4.524857
 30
0.0
 10
53.422245
 20
4.702322
 30
0.0
 10
53.589351
 20
4.844431
 30
0.0
 10
53.783526
 20
4.945936
 30
0.0
 10
54.004769
 20
5.006841
 30
0.0
 10
54.253081
 20
5.027144
 30
0.0
 10
54.456370
 20
5.015542
 30
0.0
 10
54.637563
 20
4.980739
 30
0.0
 10
54.796660
 20
4.922735
 30
0.0
 10
54.933660
 20
4.841532
 30
0.0
 10
55.051739
 20
4.737675
 30
0.0
 10
55.151864
 20
4.609515
 30
0.0
 10
55.234037
 20
4.457047
 30
0.0
 10
55.298256
 20
4.280274
 30
0.0
  0
LWPOLYLINE
  5
11a
100
AcDbEntity
  8
Layer_1
 62
7
100
AcDbPolyline
 90
41
 70
0
 10
55.627496
 20
3.833926
 30
0.0
 10
55.637025
 20
3.987359
 30
0.0
 10
55.665613
 20
4.138307
 30
0.0
 10
55.713259
 20
4.286769
 30
0.0
 10
55.779964
 20
4.432747
 30
0.0
 10
55.864068
 20
4.568916
 30
0.0
 10
55.963918
 20
4.687962
 30
0.0
 10
56.079512
 20
4.789883
 30
0.0
 10
56.210849
 20
4.874681
 30
0.0
 10
56.355167
 20
4.941385
 30
0.0
 10
56.507496
 20
4.989030
 30
0.0
 10
56.667836
 20
5.017618
 30
0.0
 10
56.836186
 20
5.027149
 30
0.0
 10
57.090436
 20
5.005464
 30
0.0
 10
57.320656
 20
4.940417
 30
0.0
 10
57.526846
 20
4.832006
 30
0.0
 10
57.709007
 20
4.680230
 30
0.0
 10
57.857882
 20
4.496412
 30
0.0
 10
57.964222
 20
4.289669
 30
0.0
 10
58.028027
 20
4.060002
 30
0.0
 10
58.049297
 20
3.807410
 30
0.0
 10
58.027751
 20
3.552468
 30
0.0
 10
57.963117
 20
3.320176
 30
0.0
 10
57.855396
 20
3.110534
 30
0.0
 10
57.704588
 20
2.923541
 30
0.0
 10
57.522151
 20
2.770797
 30
0.0
 10
57.317341
 20
2.661694
 30
0.0
 10
57.090160
 20
2.596233
 30
0.0
 10
56.840606
 20
2.574412
 30
0.0
 10
56.681095
 20
2.583529
 30
0.0
 10
56.525174
 20
2.610874
 30
0.0
 10
56.372845
 20
2.656448
 30
0.0
 10
56.224107
 20
2.720253
 30
0.0
 10
56.086969
 20
2.801596
 30
0.0
 10
55.967232
 20
2.899789
 30
0.0
 10
55.864898
 20
3.014830
 30
0.0
 10
55.779964
 20
3.146720
 30
0.0
 10
55.713259
 20
3.295734
 30
0.0
 10
55.665613
 20
3.459939
 30
0.0
 10
55.637025
 20
3.639338
 30
0.0
 10
55.627496
 20
3.833928
 30
0.0
  0
LWPOLYLINE
  5
11b
100
AcDbEntity
  8
Layer_1
 62
7
100
AcDbPolyline
 90
33
 70
0
 10
56.263881
 20
3.800783
 30
0.0
 10
56.274239
 20
3.636438
 30
0.0
 10
56.305313
 20
3.492533
 30
0.0
 10
56.357101
 20
3.369067
 30
0.0
 10
56.429607
 20
3.266042
 30
0.0
 10
56.517302
 20
3.184836
 30
0.0
 10
56.614666
 20
3.126832
 30
0.0
 10
56.721697
 20
3.092030
 30
0.0
 10
56.838396
 20
3.080429
 30
0.0
 10
56.954956
 20
3.092030
 30
0.0
 10
57.061571
 20
3.126832
 30
0.0
 10
57.158245
 20
3.184836
 30
0.0
 10
57.244976
 20
3.266042
 30
0.0
 10
57.317480
 20
3.369344
 30
0.0
 10
57.369268
 20
3.493637
 30
0.0
 10
57.400343
 20
3.638923
 30
0.0
 10
57.410701
 20
3.805202
 30
0.0
 10
57.400343
 20
3.967612
 30
0.0
 10
57.369268
 20
4.110135
 30
0.0
 10
57.317480
 20
4.232773
 30
0.0
 10
57.244976
 20
4.335523
 30
0.0
 10
57.158245
 20
4.416728
 30
0.0
 10
57.061571
 20
4.474731
 30
0.0
 10
56.954956
 20
4.509533
 30
0.0
 10
56.838396
 20
4.521135
 30
0.0
 10
56.721697
 20
4.509533
 30
0.0
 10
56.614666
 20
4.474731
 30
0.0
 10
56.517302
 20
4.416728
 30
0.0
 10
56.429607
 20
4.335523
 30
0.0
 10
56.357101
 20
4.232496
 30
0.0
 10
56.305312
 20
4.109031
 30
0.0
 10
56.274239
 20
3.965126
 30
0.0
 10
56.263881
 20
3.800783
 30
0.0
  0
LWPOLYLINE
  5
11c
100
AcDbEntity
  8
Layer_1
 62
7
100
AcDbPolyline
 90
121
 70
0
 10
58.491231
 20
4.974117
 30
0.0
 10
58.634307
 20
4.974117
 30
0.0
 10
58.777383
 20
4.974117
 30
0.0
 10
58.920459
 20
4.974117
 30
0.0
 10
59.063536
 20
4.974117
 30
0.0
 10
59.063536
 20
4.894016
 30
0.0
 10
59.063536
 20
4.813915
 30
0.0
 10
59.063536
 20
4.733815
 30
0.0
 10
59.063536
 20
4.653714
 30
0.0
 10
59.224426
 20
4.817091
 30
0.0
 10
59.399957
 20
4.933788
 30
0.0
 10
59.590127
 20
5.003807
 30
0.0
 10
59.794937
 20
5.027149
 30
0.0
 10
59.903901
 20
5.021351
 30
0.0
 10
60.005407
 20
5.003949
 30
0.0
 10
60.099456
 20
4.974947
 30
0.0
 10
60.186049
 20
4.934346
 30
0.0
 10
60.265182
 20
4.882003
 30
0.0
 10
60.336857
 20
4.817784
 30
0.0
 10
60.401077
 20
4.741689
 30
0.0
 10
60.457839
 20
4.653718
 30
0.0
 10
60.536696
 20
4.741689
 30
0.0
 10
60.618591
 20
4.817784
 30
0.0
 10
60.703526
 20
4.882003
 30
0.0
 10
60.791500
 20
4.934346
 30
0.0
 10
60.882509
 20
4.974948
 30
0.0
 10
60.976557
 20
5.003949
 30
0.0
 10
61.073645
 20
5.021351
 30
0.0
 10
61.173772
 20
5.027149
 30
0.0
 10
61.298065
 20
5.020521
 30
0.0
 10
61.412415
 20
5.000634
 30
0.0
 10
61.516823
 20
4.967489
 30
0.0
 10
61.611288
 20
4.921087
 30
0.0
 10
61.695115
 20
4.862944
 30
0.0
 10
61.767620
 20
4.792372
 30
0.0
 10
61.828801
 20
4.709372
 30
0.0
 10
61.878658
 20
4.613943
 30
0.0
 10
61.906691
 20
4.527213
 30
0.0
 10
61.926715
 20
4.417281
 30
0.0
 10
61.938731
 20
4.284148
 30
0.0
 10
61.942738
 20
4.127815
 30
0.0
 10
61.942738
 20
3.752723
 30
0.0
 10
61.942738
 20
3.377631
 30
0.0
 10
61.942738
 20
3.002539
 30
0.0
 10
61.942738
 20
2.627447
 30
0.0
 10
61.787509
 20
2.627447
 30
0.0
 10
61.632279
 20
2.627447
 30
0.0
 10
61.477050
 20
2.627447
 30
0.0
 10
61.321821
 20
2.627447
 30
0.0
 10
61.321821
 20
2.962765
 30
0.0
 10
61.321821
 20
3.298083
 30
0.0
 10
61.321821
 20
3.633401
 30
0.0
 10
61.321821
 20
3.968719
 30
0.0
 10
61.317814
 20
4.127814
 30
0.0
 10
61.305798
 20
4.255975
 30
0.0
 10
61.285773
 20
4.353200
 30
0.0
 10
61.257740
 20
4.419492
 30
0.0
 10
61.208850
 20
4.477494
 30
0.0
 10
61.148359
 20
4.518926
 30
0.0
 10
61.076270
 20
4.543785
 30
0.0
 10
60.992580
 20
4.552072
 30
0.0
 10
60.928359
 20
4.547094
 30
0.0
 10
60.866074
 20
4.532179
 30
0.0
 10
60.805723
 20
4.507321
 30
0.0
 10
60.747306
 20
4.472519
 30
0.0
 10
60.693858
 20
4.428049
 30
0.0
 10
60.648421
 20
4.374187
 30
0.0
 10
60.610995
 20
4.310936
 30
0.0
 10
60.581580
 20
4.238294
 30
0.0
 10
60.559344
 20
4.150873
 30
0.0
 10
60.543462
 20
4.041079
 30
0.0
 10
60.533933
 20
3.908914
 30
0.0
 10
60.530756
 20
3.754376
 30
0.0
 10
60.530756
 20
3.472643
 30
0.0
 10
60.530756
 20
3.190910
 30
0.0
 10
60.530756
 20
2.909176
 30
0.0
 10
60.530756
 20
2.627442
 30
0.0
 10
60.375526
 20
2.627442
 30
0.0
 10
60.220297
 20
2.627442
 30
0.0
 10
60.065068
 20
2.627442
 30
0.0
 10
59.909838
 20
2.627442
 30
0.0
 10
59.909838
 20
2.948950
 30
0.0
 10
59.909838
 20
3.270458
 30
0.0
 10
59.909838
 20
3.591964
 30
0.0
 10
59.909838
 20
3.913472
 30
0.0
 10
59.907764
 20
4.069530
 30
0.0
 10
59.901551
 20
4.195204
 30
0.0
 10
59.891193
 20
4.290497
 30
0.0
 10
59.876693
 20
4.355407
 30
0.0
 10
59.857772
 20
4.401947
 30
0.0
 10
59.834156
 20
4.442134
 30
0.0
 10
59.805845
 20
4.475970
 30
0.0
 10
59.772839
 20
4.503454
 30
0.0
 10
59.735412
 20
4.524722
 30
0.0
 10
59.691632
 20
4.539913
 30
0.0
 10
59.641501
 20
4.549030
 30
0.0
 10
59.585016
 20
4.552066
 30
0.0
 10
59.514997
 20
4.547229
 30
0.0
 10
59.448568
 20
4.532727
 30
0.0
 10
59.385731
 20
4.508560
 30
0.0
 10
59.326485
 20
4.474725
 30
0.0
 10
59.273038
 20
4.431774
 30
0.0
 10
59.227602
 20
4.380260
 30
0.0
 10
59.190176
 20
4.320186
 30
0.0
 10
59.160759
 20
4.251548
 30
0.0
 10
59.139491
 20
4.166613
 30
0.0
 10
59.124300
 20
4.057648
 30
0.0
 10
59.115183
 20
3.924654
 30
0.0
 10
59.112147
 20
3.767630
 30
0.0
 10
59.112147
 20
3.482582
 30
0.0
 10
59.112147
 20
3.197535
 30
0.0
 10
59.112147
 20
2.912487
 30
0.0
 10
59.112147
 20
2.627439
 30
0.0
 10
58.956917
 20
2.627439
 30
0.0
 10
58.801688
 20
2.627439
 30
0.0
 10
58.646458
 20
2.627439
 30
0.0
 10
58.491229
 20
2.627439
 30
0.0
 10
58.491229
 20
3.214107
 30
0.0
 10
58.491229
 20
3.800775
 30
0.0
 10
58.491229
 20
4.387443
 30
0.0
 10
58.491229
 20
4.974111
 30
0.0
  0
ENDSEC
  0
SECTION
  2
OBJECTS
  0
DICTIONARY
  5
C
330
0
100
AcDbDictionary
  3
ACAD_GROUP
350
D
  3
ACAD_MLINESTYLE
350
17
  0
DICTIONARY
  5
D
330
C
100
AcDbDictionary
  0
DICTIONARY
  5
1A
330
C
100
AcDbDictionary
  0
DICTIONARY
  5
17
330
C
100
AcDbDictionary
  3
STANDARD
350
18
  0
DICTIONARY
  5
19
330
C
100
AcDbDictionary
  0
ENDSEC
  0
EOF
