solid ascii
  facet normal -8.944272e-001 4.472136e-001 0.000000e+000
    outer loop
      vertex   -2.000000e+000 1.900000e+001 0.000000e+000
      vertex   -5.000000e+000 1.300000e+001 0.000000e+000
      vertex   -1.000000e+000 2.100000e+001 2.000000e+000
    endloop
  endfacet
  facet normal -8.944272e-001 4.472136e-001 0.000000e+000
    outer loop
      vertex   -1.000000e+000 2.100000e+001 2.000000e+000
      vertex   -5.000000e+000 1.300000e+001 0.000000e+000
      vertex   -1.000000e+000 2.100000e+001 4.000000e+000
    endloop
  endfacet
  facet normal 8.944272e-001 4.472136e-001 -3.103168e-016
    outer loop
      vertex   2.000000e+000 1.900000e+001 0.000000e+000
      vertex   1.000000e+000 2.100000e+001 2.000000e+000
      vertex   5.000000e+000 1.300000e+001 0.000000e+000
    endloop
  endfacet
  facet normal 8.944272e-001 4.472136e-001 -0.000000e+000
    outer loop
      vertex   5.000000e+000 1.300000e+001 0.000000e+000
      vertex   1.000000e+000 2.100000e+001 2.000000e+000
      vertex   1.000000e+000 2.100000e+001 4.000000e+000
    endloop
  endfacet
  facet normal 7.071068e-001 -0.000000e+000 7.071068e-001
    outer loop
      vertex   5.000000e+000 1.250000e+001 0.000000e+000
      vertex   5.000000e+000 1.300000e+001 0.000000e+000
      vertex   5.000000e-001 1.250000e+001 4.500000e+000
    endloop
  endfacet
  facet normal 7.071068e-001 0.000000e+000 7.071068e-001
    outer loop
      vertex   5.000000e-001 1.250000e+001 4.500000e+000
      vertex   5.000000e+000 1.300000e+001 0.000000e+000
      vertex   1.000000e+000 2.100000e+001 4.000000e+000
    endloop
  endfacet
  facet normal 7.071068e-001 0.000000e+000 7.071068e-001
    outer loop
      vertex   5.000000e-001 2.100000e+001 4.500000e+000
      vertex   5.000000e-001 1.250000e+001 4.500000e+000
      vertex   1.000000e+000 2.100000e+001 4.000000e+000
    endloop
  endfacet
  facet normal 4.235358e-016 2.117679e-016 -1.000000e+000
    outer loop
      vertex   5.000000e+000 1.300000e+001 0.000000e+000
      vertex   3.939340e+000 1.250000e+001 -5.551115e-016
      vertex   2.000000e+000 1.900000e+001 0.000000e+000
    endloop
  endfacet
  facet normal 5.233642e-016 0.000000e+000 -1.000000e+000
    outer loop
      vertex   5.000000e+000 1.300000e+001 0.000000e+000
      vertex   5.000000e+000 1.250000e+001 0.000000e+000
      vertex   3.939340e+000 1.250000e+001 -5.551115e-016
    endloop
  endfacet
  facet normal 0.000000e+000 0.000000e+000 -1.000000e+000
    outer loop
      vertex   6.500000e+000 -5.000000e+000 0.000000e+000
      vertex   -6.500000e+000 -5.000000e+000 0.000000e+000
      vertex   5.000000e+000 0.000000e+000 0.000000e+000
    endloop
  endfacet
  facet normal -0.000000e+000 -0.000000e+000 -1.000000e+000
    outer loop
      vertex   6.500000e+000 0.000000e+000 0.000000e+000
      vertex   6.500000e+000 -5.000000e+000 0.000000e+000
      vertex   5.000000e+000 0.000000e+000 0.000000e+000
    endloop
  endfacet
  facet normal -0.000000e+000 -0.000000e+000 -1.000000e+000
    outer loop
      vertex   5.000000e+000 4.000000e+000 0.000000e+000
      vertex   5.000000e+000 0.000000e+000 0.000000e+000
      vertex   3.939340e+000 4.000000e+000 0.000000e+000
    endloop
  endfacet
  facet normal -0.000000e+000 -0.000000e+000 -1.000000e+000
    outer loop
      vertex   3.939340e+000 4.000000e+000 0.000000e+000
      vertex   5.000000e+000 0.000000e+000 0.000000e+000
      vertex   -5.000000e+000 0.000000e+000 0.000000e+000
    endloop
  endfacet
  facet normal -0.000000e+000 0.000000e+000 -1.000000e+000
    outer loop
      vertex   -3.939340e+000 4.000000e+000 0.000000e+000
      vertex   -5.000000e+000 0.000000e+000 0.000000e+000
      vertex   -5.000000e+000 4.000000e+000 0.000000e+000
    endloop
  endfacet
  facet normal 0.000000e+000 -0.000000e+000 -1.000000e+000
    outer loop
      vertex   -3.939340e+000 4.000000e+000 0.000000e+000
      vertex   3.939340e+000 4.000000e+000 0.000000e+000
      vertex   -5.000000e+000 0.000000e+000 0.000000e+000
    endloop
  endfacet
  facet normal 0.000000e+000 -6.530724e-017 -1.000000e+000
    outer loop
      vertex   -3.939340e+000 4.000000e+000 0.000000e+000
      vertex   3.939340e+000 1.250000e+001 -5.551115e-016
      vertex   3.939340e+000 4.000000e+000 0.000000e+000
    endloop
  endfacet
  facet normal -7.045743e-017 -9.202760e-033 -1.000000e+000
    outer loop
      vertex   -3.939340e+000 4.000000e+000 0.000000e+000
      vertex   -3.939340e+000 1.250000e+001 0.000000e+000
      vertex   3.939340e+000 1.250000e+001 -5.551115e-016
    endloop
  endfacet
  facet normal -7.045743e-017 6.438009e-017 -1.000000e+000
    outer loop
      vertex   3.939340e+000 1.250000e+001 -5.551115e-016
      vertex   -3.939340e+000 1.250000e+001 0.000000e+000
      vertex   2.000000e+000 1.900000e+001 0.000000e+000
    endloop
  endfacet
  facet normal -0.000000e+000 0.000000e+000 -1.000000e+000
    outer loop
      vertex   2.000000e+000 1.900000e+001 0.000000e+000
      vertex   -3.939340e+000 1.250000e+001 0.000000e+000
      vertex   -2.000000e+000 1.900000e+001 0.000000e+000
    endloop
  endfacet
  facet normal -0.000000e+000 0.000000e+000 -1.000000e+000
    outer loop
      vertex   -2.000000e+000 1.900000e+001 0.000000e+000
      vertex   -3.939340e+000 1.250000e+001 0.000000e+000
      vertex   -5.000000e+000 1.300000e+001 0.000000e+000
    endloop
  endfacet
  facet normal -0.000000e+000 -0.000000e+000 -1.000000e+000
    outer loop
      vertex   -5.000000e+000 1.300000e+001 0.000000e+000
      vertex   -3.939340e+000 1.250000e+001 0.000000e+000
      vertex   -5.000000e+000 1.250000e+001 0.000000e+000
    endloop
  endfacet
  facet normal 0.000000e+000 -0.000000e+000 -1.000000e+000
    outer loop
      vertex   -6.500000e+000 0.000000e+000 0.000000e+000
      vertex   -5.000000e+000 0.000000e+000 0.000000e+000
      vertex   -6.500000e+000 -5.000000e+000 0.000000e+000
    endloop
  endfacet
  facet normal 0.000000e+000 0.000000e+000 -1.000000e+000
    outer loop
      vertex   -6.500000e+000 -5.000000e+000 0.000000e+000
      vertex   -5.000000e+000 0.000000e+000 0.000000e+000
      vertex   5.000000e+000 0.000000e+000 0.000000e+000
    endloop
  endfacet
  facet normal 0.000000e+000 7.071068e-001 -7.071068e-001
    outer loop
      vertex   2.000000e+000 1.900000e+001 0.000000e+000
      vertex   -2.000000e+000 1.900000e+001 0.000000e+000
      vertex   1.000000e+000 2.100000e+001 2.000000e+000
    endloop
  endfacet
  facet normal 0.000000e+000 7.071068e-001 -7.071068e-001
    outer loop
      vertex   1.000000e+000 2.100000e+001 2.000000e+000
      vertex   -2.000000e+000 1.900000e+001 0.000000e+000
      vertex   -1.000000e+000 2.100000e+001 2.000000e+000
    endloop
  endfacet
  facet normal -7.071068e-001 0.000000e+000 7.071068e-001
    outer loop
      vertex   -5.000000e-001 2.100000e+001 4.500000e+000
      vertex   -1.000000e+000 2.100000e+001 4.000000e+000
      vertex   -5.000000e-001 1.250000e+001 4.500000e+000
    endloop
  endfacet
  facet normal -7.071068e-001 8.392764e-017 7.071068e-001
    outer loop
      vertex   -5.000000e-001 1.250000e+001 4.500000e+000
      vertex   -1.000000e+000 2.100000e+001 4.000000e+000
      vertex   -5.000000e+000 1.300000e+001 0.000000e+000
    endloop
  endfacet
  facet normal -7.071068e-001 1.744547e-015 7.071068e-001
    outer loop
      vertex   -5.000000e+000 1.250000e+001 0.000000e+000
      vertex   -5.000000e-001 1.250000e+001 4.500000e+000
      vertex   -5.000000e+000 1.300000e+001 0.000000e+000
    endloop
  endfacet
  facet normal -7.071068e-001 -1.758386e-016 7.071068e-001
    outer loop
      vertex   1.110223e-015 1.250000e+001 3.939340e+000
      vertex   -3.939340e+000 1.250000e+001 0.000000e+000
      vertex   1.387779e-015 4.000000e+000 3.939340e+000
    endloop
  endfacet
  facet normal -7.071068e-001 -9.235838e-017 7.071068e-001
    outer loop
      vertex   1.387779e-015 4.000000e+000 3.939340e+000
      vertex   -3.939340e+000 1.250000e+001 0.000000e+000
      vertex   -3.939340e+000 4.000000e+000 0.000000e+000
    endloop
  endfacet
  facet normal 0.000000e+000 -1.000000e+000 0.000000e+000
    outer loop
      vertex   -5.000000e+000 1.250000e+001 0.000000e+000
      vertex   -3.939340e+000 1.250000e+001 0.000000e+000
      vertex   -5.000000e-001 1.250000e+001 4.500000e+000
    endloop
  endfacet
  facet normal 0.000000e+000 -1.000000e+000 -0.000000e+000
    outer loop
      vertex   -5.000000e-001 1.250000e+001 4.500000e+000
      vertex   -3.939340e+000 1.250000e+001 0.000000e+000
      vertex   1.110223e-015 1.250000e+001 3.939340e+000
    endloop
  endfacet
  facet normal 0.000000e+000 -1.000000e+000 -0.000000e+000
    outer loop
      vertex   5.000000e-001 1.250000e+001 4.500000e+000
      vertex   1.110223e-015 1.250000e+001 3.939340e+000
      vertex   3.939340e+000 1.250000e+001 -5.551115e-016
    endloop
  endfacet
  facet normal -0.000000e+000 -1.000000e+000 -0.000000e+000
    outer loop
      vertex   5.000000e+000 1.250000e+001 0.000000e+000
      vertex   5.000000e-001 1.250000e+001 4.500000e+000
      vertex   3.939340e+000 1.250000e+001 -5.551115e-016
    endloop
  endfacet
  facet normal 0.000000e+000 -1.000000e+000 0.000000e+000
    outer loop
      vertex   1.110223e-015 1.250000e+001 3.939340e+000
      vertex   5.000000e-001 1.250000e+001 4.500000e+000
      vertex   -5.000000e-001 1.250000e+001 4.500000e+000
    endloop
  endfacet
  facet normal 7.071068e-001 -1.758386e-016 7.071068e-001
    outer loop
      vertex   1.387779e-015 4.000000e+000 3.939340e+000
      vertex   3.939340e+000 4.000000e+000 0.000000e+000
      vertex   1.110223e-015 1.250000e+001 3.939340e+000
    endloop
  endfacet
  facet normal 7.071068e-001 -3.253667e-032 7.071068e-001
    outer loop
      vertex   1.110223e-015 1.250000e+001 3.939340e+000
      vertex   3.939340e+000 4.000000e+000 0.000000e+000
      vertex   3.939340e+000 1.250000e+001 -5.551115e-016
    endloop
  endfacet
  facet normal -7.071068e-001 0.000000e+000 7.071068e-001
    outer loop
      vertex   -5.000000e-001 4.000000e+000 4.500000e+000
      vertex   -5.000000e+000 4.000000e+000 0.000000e+000
      vertex   -5.000000e-001 0.000000e+000 4.500000e+000
    endloop
  endfacet
  facet normal -7.071068e-001 0.000000e+000 7.071068e-001
    outer loop
      vertex   -5.000000e-001 0.000000e+000 4.500000e+000
      vertex   -5.000000e+000 4.000000e+000 0.000000e+000
      vertex   -5.000000e+000 0.000000e+000 0.000000e+000
    endloop
  endfacet
  facet normal 0.000000e+000 1.000000e+000 0.000000e+000
    outer loop
      vertex   5.000000e+000 4.000000e+000 0.000000e+000
      vertex   3.939340e+000 4.000000e+000 0.000000e+000
      vertex   5.000000e-001 4.000000e+000 4.500000e+000
    endloop
  endfacet
  facet normal 0.000000e+000 1.000000e+000 0.000000e+000
    outer loop
      vertex   5.000000e-001 4.000000e+000 4.500000e+000
      vertex   3.939340e+000 4.000000e+000 0.000000e+000
      vertex   1.387779e-015 4.000000e+000 3.939340e+000
    endloop
  endfacet
  facet normal 0.000000e+000 1.000000e+000 0.000000e+000
    outer loop
      vertex   -5.000000e-001 4.000000e+000 4.500000e+000
      vertex   1.387779e-015 4.000000e+000 3.939340e+000
      vertex   -3.939340e+000 4.000000e+000 0.000000e+000
    endloop
  endfacet
  facet normal -0.000000e+000 1.000000e+000 0.000000e+000
    outer loop
      vertex   -5.000000e+000 4.000000e+000 0.000000e+000
      vertex   -5.000000e-001 4.000000e+000 4.500000e+000
      vertex   -3.939340e+000 4.000000e+000 0.000000e+000
    endloop
  endfacet
  facet normal 0.000000e+000 1.000000e+000 -0.000000e+000
    outer loop
      vertex   1.387779e-015 4.000000e+000 3.939340e+000
      vertex   -5.000000e-001 4.000000e+000 4.500000e+000
      vertex   5.000000e-001 4.000000e+000 4.500000e+000
    endloop
  endfacet
  facet normal 0.000000e+000 0.000000e+000 1.000000e+000
    outer loop
      vertex   5.000000e-001 4.000000e+000 4.500000e+000
      vertex   -5.000000e-001 4.000000e+000 4.500000e+000
      vertex   5.000000e-001 0.000000e+000 4.500000e+000
    endloop
  endfacet
  facet normal 0.000000e+000 0.000000e+000 1.000000e+000
    outer loop
      vertex   5.000000e-001 0.000000e+000 4.500000e+000
      vertex   -5.000000e-001 4.000000e+000 4.500000e+000
      vertex   -5.000000e-001 0.000000e+000 4.500000e+000
    endloop
  endfacet
  facet normal 0.000000e+000 -0.000000e+000 1.000000e+000
    outer loop
      vertex   -5.000000e-001 1.250000e+001 4.500000e+000
      vertex   5.000000e-001 1.250000e+001 4.500000e+000
      vertex   -5.000000e-001 2.100000e+001 4.500000e+000
    endloop
  endfacet
  facet normal -0.000000e+000 0.000000e+000 1.000000e+000
    outer loop
      vertex   -5.000000e-001 2.100000e+001 4.500000e+000
      vertex   5.000000e-001 1.250000e+001 4.500000e+000
      vertex   5.000000e-001 2.100000e+001 4.500000e+000
    endloop
  endfacet
  facet normal 7.071068e-001 0.000000e+000 7.071068e-001
    outer loop
      vertex   5.000000e+000 4.000000e+000 0.000000e+000
      vertex   5.000000e-001 4.000000e+000 4.500000e+000
      vertex   5.000000e+000 0.000000e+000 0.000000e+000
    endloop
  endfacet
  facet normal 7.071068e-001 0.000000e+000 7.071068e-001
    outer loop
      vertex   5.000000e+000 0.000000e+000 0.000000e+000
      vertex   5.000000e-001 4.000000e+000 4.500000e+000
      vertex   5.000000e-001 0.000000e+000 4.500000e+000
    endloop
  endfacet
  facet normal -0.000000e+000 -1.000000e+000 -0.000000e+000
    outer loop
      vertex   6.500000e+000 -5.000000e+000 5.000000e+000
      vertex   -6.500000e+000 -5.000000e+000 5.000000e+000
      vertex   6.500000e+000 -5.000000e+000 0.000000e+000
    endloop
  endfacet
  facet normal -0.000000e+000 -1.000000e+000 -0.000000e+000
    outer loop
      vertex   6.500000e+000 -5.000000e+000 0.000000e+000
      vertex   -6.500000e+000 -5.000000e+000 5.000000e+000
      vertex   -6.500000e+000 -5.000000e+000 0.000000e+000
    endloop
  endfacet
  facet normal -1.000000e+000 0.000000e+000 -0.000000e+000
    outer loop
      vertex   -6.500000e+000 -5.000000e+000 5.000000e+000
      vertex   -6.500000e+000 0.000000e+000 5.000000e+000
      vertex   -6.500000e+000 -5.000000e+000 0.000000e+000
    endloop
  endfacet
  facet normal -1.000000e+000 0.000000e+000 0.000000e+000
    outer loop
      vertex   -6.500000e+000 -5.000000e+000 0.000000e+000
      vertex   -6.500000e+000 0.000000e+000 5.000000e+000
      vertex   -6.500000e+000 0.000000e+000 0.000000e+000
    endloop
  endfacet
  facet normal -0.000000e+000 1.000000e+000 -0.000000e+000
    outer loop
      vertex   -5.000000e+000 0.000000e+000 0.000000e+000
      vertex   -6.500000e+000 0.000000e+000 5.000000e+000
      vertex   -5.000000e-001 0.000000e+000 4.500000e+000
    endloop
  endfacet
  facet normal 0.000000e+000 1.000000e+000 -0.000000e+000
    outer loop
      vertex   -5.000000e+000 0.000000e+000 0.000000e+000
      vertex   -6.500000e+000 0.000000e+000 0.000000e+000
      vertex   -6.500000e+000 0.000000e+000 5.000000e+000
    endloop
  endfacet
  facet normal -0.000000e+000 1.000000e+000 0.000000e+000
    outer loop
      vertex   -6.500000e+000 0.000000e+000 5.000000e+000
      vertex   6.500000e+000 0.000000e+000 5.000000e+000
      vertex   -5.000000e-001 0.000000e+000 4.500000e+000
    endloop
  endfacet
  facet normal -0.000000e+000 1.000000e+000 0.000000e+000
    outer loop
      vertex   -5.000000e-001 0.000000e+000 4.500000e+000
      vertex   6.500000e+000 0.000000e+000 5.000000e+000
      vertex   5.000000e-001 0.000000e+000 4.500000e+000
    endloop
  endfacet
  facet normal -0.000000e+000 1.000000e+000 0.000000e+000
    outer loop
      vertex   5.000000e-001 0.000000e+000 4.500000e+000
      vertex   6.500000e+000 0.000000e+000 5.000000e+000
      vertex   5.000000e+000 0.000000e+000 0.000000e+000
    endloop
  endfacet
  facet normal -0.000000e+000 1.000000e+000 0.000000e+000
    outer loop
      vertex   5.000000e+000 0.000000e+000 0.000000e+000
      vertex   6.500000e+000 0.000000e+000 5.000000e+000
      vertex   6.500000e+000 0.000000e+000 0.000000e+000
    endloop
  endfacet
  facet normal 1.000000e+000 0.000000e+000 0.000000e+000
    outer loop
      vertex   6.500000e+000 0.000000e+000 5.000000e+000
      vertex   6.500000e+000 -5.000000e+000 5.000000e+000
      vertex   6.500000e+000 0.000000e+000 0.000000e+000
    endloop
  endfacet
  facet normal 1.000000e+000 0.000000e+000 0.000000e+000
    outer loop
      vertex   6.500000e+000 0.000000e+000 0.000000e+000
      vertex   6.500000e+000 -5.000000e+000 5.000000e+000
      vertex   6.500000e+000 -5.000000e+000 0.000000e+000
    endloop
  endfacet
  facet normal 0.000000e+000 -0.000000e+000 1.000000e+000
    outer loop
      vertex   -6.500000e+000 -5.000000e+000 5.000000e+000
      vertex   6.500000e+000 -5.000000e+000 5.000000e+000
      vertex   -6.500000e+000 0.000000e+000 5.000000e+000
    endloop
  endfacet
  facet normal -0.000000e+000 0.000000e+000 1.000000e+000
    outer loop
      vertex   -6.500000e+000 0.000000e+000 5.000000e+000
      vertex   6.500000e+000 -5.000000e+000 5.000000e+000
      vertex   6.500000e+000 0.000000e+000 5.000000e+000
    endloop
  endfacet
  facet normal 0.000000e+000 1.000000e+000 -0.000000e+000
    outer loop
      vertex   1.000000e+000 2.100000e+001 2.000000e+000
      vertex   -1.000000e+000 2.100000e+001 2.000000e+000
      vertex   1.000000e+000 2.100000e+001 4.000000e+000
    endloop
  endfacet
  facet normal 0.000000e+000 1.000000e+000 -0.000000e+000
    outer loop
      vertex   1.000000e+000 2.100000e+001 4.000000e+000
      vertex   -1.000000e+000 2.100000e+001 2.000000e+000
      vertex   5.000000e-001 2.100000e+001 4.500000e+000
    endloop
  endfacet
  facet normal 0.000000e+000 1.000000e+000 -0.000000e+000
    outer loop
      vertex   5.000000e-001 2.100000e+001 4.500000e+000
      vertex   -1.000000e+000 2.100000e+001 2.000000e+000
      vertex   -5.000000e-001 2.100000e+001 4.500000e+000
    endloop
  endfacet
  facet normal 0.000000e+000 1.000000e+000 -0.000000e+000
    outer loop
      vertex   -5.000000e-001 2.100000e+001 4.500000e+000
      vertex   -1.000000e+000 2.100000e+001 2.000000e+000
      vertex   -1.000000e+000 2.100000e+001 4.000000e+000
    endloop
  endfacet
endsolid
