solid OpenSCAD_Model
  facet normal 0 -1 0
    outer loop
      vertex -7.5 -5.4 0.005
      vertex -7.5 -5.4 -0.005
      vertex 7.5 -5.4 -0.005
    endloop
  endfacet
  facet normal 0 -1 0
    outer loop
      vertex 7.5 -5.4 0.005
      vertex -7.5 -5.4 0.005
      vertex 7.5 -5.4 -0.005
    endloop
  endfacet
  facet normal 0 0 -1
    outer loop
      vertex 3.3 0 -0.005
      vertex 7.5 -5.4 -0.005
      vertex 1.65 -2.85788 -0.005
    endloop
  endfacet
  facet normal 0 0 -1
    outer loop
      vertex 1.65 2.85788 -0.005
      vertex -7.5 5.4 -0.005
      vertex 7.5 5.4 -0.005
    endloop
  endfacet
  facet normal 0 0 -1
    outer loop
      vertex -7.5 -5.4 -0.005
      vertex -7.5 5.4 -0.005
      vertex -3.3 0 -0.005
    endloop
  endfacet
  facet normal 0 0 -1
    outer loop
      vertex -7.5 -5.4 -0.005
      vertex -3.3 0 -0.005
      vertex -1.65 -2.85788 -0.005
    endloop
  endfacet
  facet normal 0 0 -1
    outer loop
      vertex -7.5 -5.4 -0.005
      vertex -1.65 -2.85788 -0.005
      vertex 7.5 -5.4 -0.005
    endloop
  endfacet
  facet normal 0 0 -1
    outer loop
      vertex -1.65 -2.85788 -0.005
      vertex 1.65 -2.85788 -0.005
      vertex 7.5 -5.4 -0.005
    endloop
  endfacet
  facet normal 0 0 -1
    outer loop
      vertex 7.5 -5.4 -0.005
      vertex 3.3 0 -0.005
      vertex 7.5 5.4 -0.005
    endloop
  endfacet
  facet normal 0 0 -1
    outer loop
      vertex -1.65 2.85788 -0.005
      vertex -7.5 5.4 -0.005
      vertex 1.65 2.85788 -0.005
    endloop
  endfacet
  facet normal 0 0 -1
    outer loop
      vertex 3.3 0 -0.005
      vertex 1.65 2.85788 -0.005
      vertex 7.5 5.4 -0.005
    endloop
  endfacet
  facet normal 0 0 -1
    outer loop
      vertex -3.3 0 -0.005
      vertex -7.5 5.4 -0.005
      vertex -1.65 2.85788 -0.005
    endloop
  endfacet
  facet normal -1 0 0
    outer loop
      vertex -7.5 -5.4 -0.005
      vertex -7.5 -5.4 0.005
      vertex -7.5 5.4 -0.005
    endloop
  endfacet
  facet normal -1 0 0
    outer loop
      vertex -7.5 5.4 -0.005
      vertex -7.5 -5.4 0.005
      vertex -7.5 -3 3.005
    endloop
  endfacet
  facet normal -1 0 0
    outer loop
      vertex -7.5 5.4 -0.005
      vertex -7.5 -3 3.005
      vertex -7.5 3 3.005
    endloop
  endfacet
  facet normal -1 0 0
    outer loop
      vertex -7.5 5.4 -0.005
      vertex -7.5 3 3.005
      vertex -7.5 5.4 0.005
    endloop
  endfacet
  facet normal 0 -0.780869 0.624695
    outer loop
      vertex -7.5 -3 3.005
      vertex -7.5 -5.4 0.005
      vertex 7.5 -5.4 0.005
    endloop
  endfacet
  facet normal 0 -0.780869 0.624695
    outer loop
      vertex 7.5 -3 3.005
      vertex -7.5 -3 3.005
      vertex 7.5 -5.4 0.005
    endloop
  endfacet
  facet normal 1 0 0
    outer loop
      vertex 7.5 -5.4 0.005
      vertex 7.5 -5.4 -0.005
      vertex 7.5 5.4 -0.005
    endloop
  endfacet
  facet normal 1 0 0
    outer loop
      vertex 7.5 3 3.005
      vertex 7.5 -5.4 0.005
      vertex 7.5 5.4 0.005
    endloop
  endfacet
  facet normal 1 0 0
    outer loop
      vertex 7.5 5.4 0.005
      vertex 7.5 -5.4 0.005
      vertex 7.5 5.4 -0.005
    endloop
  endfacet
  facet normal 1 0 0
    outer loop
      vertex 7.5 -3 3.005
      vertex 7.5 -5.4 0.005
      vertex 7.5 3 3.005
    endloop
  endfacet
  facet normal 0 1 0
    outer loop
      vertex -7.5 5.4 -0.005
      vertex -7.5 5.4 0.005
      vertex 7.5 5.4 -0.005
    endloop
  endfacet
  facet normal 0 1 0
    outer loop
      vertex 7.5 5.4 -0.005
      vertex -7.5 5.4 0.005
      vertex 7.5 5.4 0.005
    endloop
  endfacet
  facet normal 0.866025 -0.5 0
    outer loop
      vertex -1.65 2.85788 -0.005
      vertex -1.65 2.85788 3.005
      vertex -3.3 0 3.005
    endloop
  endfacet
  facet normal 0.866025 -0.5 0
    outer loop
      vertex -3.3 0 -0.005
      vertex -1.65 2.85788 -0.005
      vertex -3.3 0 3.005
    endloop
  endfacet
  facet normal 0.866025 0.5 0
    outer loop
      vertex -3.3 0 3.005
      vertex -1.65 -2.85788 3.005
      vertex -1.65 -2.85788 -0.005
    endloop
  endfacet
  facet normal 0.866025 0.5 0
    outer loop
      vertex -3.3 0 -0.005
      vertex -3.3 0 3.005
      vertex -1.65 -2.85788 -0.005
    endloop
  endfacet
  facet normal 0 -1 0
    outer loop
      vertex 1.65 2.85788 -0.005
      vertex 1.65 2.85788 3.005
      vertex -1.65 2.85788 3.005
    endloop
  endfacet
  facet normal 0 -1 0
    outer loop
      vertex -1.65 2.85788 -0.005
      vertex 1.65 2.85788 -0.005
      vertex -1.65 2.85788 3.005
    endloop
  endfacet
  facet normal -0.866025 -0.5 0
    outer loop
      vertex 3.3 0 3.005
      vertex 1.65 2.85788 3.005
      vertex 3.3 0 -0.005
    endloop
  endfacet
  facet normal -0.866025 -0.5 0
    outer loop
      vertex 3.3 0 -0.005
      vertex 1.65 2.85788 3.005
      vertex 1.65 2.85788 -0.005
    endloop
  endfacet
  facet normal -0.866025 0.5 0
    outer loop
      vertex 3.3 0 3.005
      vertex 3.3 0 -0.005
      vertex 1.65 -2.85788 3.005
    endloop
  endfacet
  facet normal -0.866025 0.5 0
    outer loop
      vertex 1.65 -2.85788 3.005
      vertex 3.3 0 -0.005
      vertex 1.65 -2.85788 -0.005
    endloop
  endfacet
  facet normal 0 1 0
    outer loop
      vertex 1.65 -2.85788 3.005
      vertex 1.65 -2.85788 -0.005
      vertex -1.65 -2.85788 3.005
    endloop
  endfacet
  facet normal 0 1 0
    outer loop
      vertex -1.65 -2.85788 3.005
      vertex 1.65 -2.85788 -0.005
      vertex -1.65 -2.85788 -0.005
    endloop
  endfacet
  facet normal 0 0.780869 0.624695
    outer loop
      vertex -7.5 3 3.005
      vertex 7.5 3 3.005
      vertex -7.5 5.4 0.005
    endloop
  endfacet
  facet normal 0 0.780869 0.624695
    outer loop
      vertex -7.5 5.4 0.005
      vertex 7.5 3 3.005
      vertex 7.5 5.4 0.005
    endloop
  endfacet
  facet normal 0 0 1
    outer loop
      vertex -1.65 -2.85788 3.005
      vertex -7.5 -3 3.005
      vertex 7.5 -3 3.005
    endloop
  endfacet
  facet normal 0 0 1
    outer loop
      vertex 1.65 -2.85788 3.005
      vertex -1.65 -2.85788 3.005
      vertex 7.5 -3 3.005
    endloop
  endfacet
  facet normal 0 0 1
    outer loop
      vertex -7.5 3 3.005
      vertex -7.5 -3 3.005
      vertex -1.65 -2.85788 3.005
    endloop
  endfacet
  facet normal 0 0 1
    outer loop
      vertex -7.5 3 3.005
      vertex -1.65 -2.85788 3.005
      vertex -3.3 0 3.005
    endloop
  endfacet
  facet normal 0 0 1
    outer loop
      vertex 7.5 3 3.005
      vertex -7.5 3 3.005
      vertex -1.65 2.85788 3.005
    endloop
  endfacet
  facet normal 0 0 1
    outer loop
      vertex 7.5 3 3.005
      vertex 1.65 2.85788 3.005
      vertex 7.5 -3 3.005
    endloop
  endfacet
  facet normal 0 0 1
    outer loop
      vertex 7.5 3 3.005
      vertex -1.65 2.85788 3.005
      vertex 1.65 2.85788 3.005
    endloop
  endfacet
  facet normal 0 0 1
    outer loop
      vertex 1.65 2.85788 3.005
      vertex 3.3 0 3.005
      vertex 7.5 -3 3.005
    endloop
  endfacet
  facet normal 0 0 1
    outer loop
      vertex -3.3 0 3.005
      vertex -1.65 2.85788 3.005
      vertex -7.5 3 3.005
    endloop
  endfacet
  facet normal 0 0 1
    outer loop
      vertex 3.3 0 3.005
      vertex 1.65 -2.85788 3.005
      vertex 7.5 -3 3.005
    endloop
  endfacet
endsolid OpenSCAD_Model
